<?xml version="1.0" encoding="UTF-8" standalone="no"?>
<!DOCTYPE svg PUBLIC "-//W3C//DTD SVG 1.1//EN" "http://www.w3.org/Graphics/SVG/1.1/DTD/svg11.dtd">
<svg version="1.1" xmlns="http://www.w3.org/2000/svg" xmlns:xlink="http://www.w3.org/1999/xlink" preserveAspectRatio="xMidYMid meet" viewBox="0 0 640 640" width="640" height="640"><defs><path d="M149.32 105.26L-0.68 105.26L-0.68 255.26L149.32 255.26L149.32 105.26Z" id="bbM2WHXys"></path><path d="M0 0L15 15L25 10L25 0L0 0Z" id="b2rGG6lhMp"></path><path d="M125 0.68L140 15.68L150 10.68L150 0.67L125 0.68Z" id="f5nf1V9ZH"></path><path d="M100 0.68L115 15.68L125 10.68L125 0.68L100 0.68Z" id="d3UUQSwrWU"></path><path d="M75 0.68L90 15.68L100 10.68L100 0.68L75 0.68Z" id="ate6SRcMZ"></path><path d="M50 0.68L65 15.68L75 10.68L75 0.68L50 0.68Z" id="a2B2Om1wy"></path><path d="M25 2L40 17L50 12L50 2L25 2Z" id="bJM09M9H0"></path><path d="M146 22.67L131 7.68L121 12.68L121 22.68L146 22.67Z" id="ciehXY6IU"></path><path d="M96 22.68L81 7.68L71 12.68L71 22.68L96 22.68Z" id="a4i0ruAou8"></path><path d="M44 23L29 8L19 13L19 23L44 23Z" id="bglnO6HiS"></path><path d="M71 24L56 9L46 14L46 24L71 24Z" id="aiZQnIaVi"></path><path d="M99.3 22.52L109.59 22.01L110.53 16.5L109.08 11.71L101.18 11.5L94 13.68L99.3 22.52Z" id="ah3LAUWdL"></path><path d="M11.23 11.81L0.94 12.33L0 17.84L1.45 22.62L9.36 22.83L16.53 20.66L11.23 11.81Z" id="efW5R4Npo"></path><path d="M110.58 32.16L120.88 31.65L121.82 26.13L120.37 21.35L112.46 21.14L105.29 23.32L110.58 32.16Z" id="b3ppjXIL5"></path><path d="M8.91 33.42L19.21 32.91L20.15 27.4L18.69 22.61L10.79 22.4L3.61 24.58L8.91 33.42Z" id="b4UTsUurQV"></path><path d="M134.12 33.7L144.42 33.18L145.36 27.67L143.9 22.89L136 22.67L128.82 24.85L134.12 33.7Z" id="dO6CA6gOy"></path><path d="M94.12 33.7L104.42 33.18L105.36 27.67L103.9 22.89L96 22.68L88.83 24.85L94.12 33.7Z" id="a7N0Byxb1c"></path><path d="M74.12 33.7L84.42 33.19L85.36 27.68L83.9 22.89L76 22.68L68.83 24.86L74.12 33.7Z" id="cWEWaXXXo"></path><path d="M32.12 34.02L42.42 33.51L43.36 28L41.91 23.21L34 23L26.83 25.18L32.12 34.02Z" id="dYYg39N0"></path><path d="M54.12 35.02L64.42 34.51L65.36 29L63.91 24.21L56 24L48.83 26.18L54.12 35.02Z" id="b2l9b2g7zf"></path><path d="M121.87 41.8L132.16 41.28L133.1 35.77L131.65 30.99L123.75 30.77L116.57 32.95L121.87 41.8Z" id="a1FfeureKL"></path><path d="M20.2 43.06L30.49 42.55L31.43 37.03L29.98 32.25L22.08 32.04L14.9 34.21L20.2 43.06Z" id="aHEN4XKrw"></path><path d="M105.41 43.33L115.7 42.82L116.64 37.31L115.19 32.53L107.29 32.31L100.11 34.49L105.41 43.33Z" id="f2pbd3yJb9"></path><path d="M43.28 44.06L53.58 43.55L54.52 38.04L53.06 33.25L45.16 33.04L37.98 35.22L43.28 44.06Z" id="a3zwbWcnIZ"></path><path d="M82.54 44.21L92.83 43.7L93.77 38.19L92.32 33.4L84.42 33.19L77.24 35.37L82.54 44.21Z" id="d13nQokHt0"></path><path d="M138.42 44.41L148.71 43.9L149.65 38.39L148.2 33.6L140.3 33.39L133.12 35.57L138.42 44.41Z" id="c1As4Ucu0W"></path><path d="M65.92 44.55L76.21 44.04L77.15 38.53L75.7 33.74L67.8 33.53L60.62 35.71L65.92 44.55Z" id="jCdYyfW6q"></path><path d="M5.3 45.77L15.59 45.25L16.53 39.74L15.08 34.96L7.18 34.74L0 36.92L5.3 45.77Z" id="b2cxb4ZE06"></path><path d="M126.17 52.51L136.46 52L137.4 46.49L135.95 41.7L128.04 41.49L120.87 43.67L126.17 52.51Z" id="g5Lm6M7D8"></path><path d="M31.48 52.7L41.78 52.18L42.72 46.67L41.27 41.89L33.36 41.67L26.19 43.85L31.48 52.7Z" id="dx0o3FebC"></path><path d="M55.08 53.59L65.37 53.08L66.31 47.57L64.86 42.78L56.96 42.57L49.78 44.75L55.08 53.59Z" id="j80MSz9Sa"></path><path d="M106.09 44.29L98.58 36.79L93.58 39.29L93.58 44.29L106.09 44.29Z" id="f4KskHVvX"></path><path d="M107.47 43.23L114.97 50.73L119.97 48.23L119.97 43.23L107.47 43.23Z" id="b2VTSasAW"></path><path d="M87.72 49.54L80.21 42.04L75.21 44.54L75.22 49.54L87.72 49.54Z" id="agdqGb8GC"></path><path d="M93.58 44.29L101.09 51.79L106.09 49.29L106.09 44.29L93.58 44.29Z" id="be0nBZeOw"></path><path d="M29.76 50.45L22.26 42.96L17.26 45.46L17.26 50.46L29.76 50.45Z" id="f2uPTOpBL"></path><path d="M136.82 44.57L144.32 52.07L149.32 49.57L149.32 44.57L136.82 44.57Z" id="b8lTbMW11A"></path><path d="M100.33 51.2L92.83 43.7L87.83 46.2L87.83 51.2L100.33 51.2Z" id="d1FEtBDLA"></path><path d="M2.8 45.77L10.3 53.27L15.3 50.77L15.3 45.77L2.8 45.77Z" id="biq70yRPn"></path><path d="M55.08 53.59L47.58 46.09L42.58 48.59L42.58 53.59L55.08 53.59Z" id="bw1frEJJy"></path><path d="M78.63 53.67L71.12 46.17L66.12 48.67L66.13 53.67L78.63 53.67Z" id="c1orztD4XD"></path><path d="M101.09 54.54L111.7 54.54L113.47 49.23L109.93 45.7L101.09 54.54Z" id="f18422BSD1"></path><path d="M128.47 55.23L120.97 47.73L115.97 50.23L115.97 55.23L128.47 55.23Z" id="d1ae4IKeUw"></path><path d="M75.22 49.54L82.72 57.04L87.72 54.54L87.72 49.54L75.22 49.54Z" id="b2A5vQ7drQ"></path><path d="M0 43.35L0 53.96L5.3 55.73L8.84 52.19L0 43.35Z" id="a1rx3nKQ3o"></path><path d="M17.26 50.46L24.76 57.96L29.76 55.46L29.76 50.46L17.26 50.46Z" id="e2scNclHsp"></path><path d="M148.96 57L141.46 49.5L136.46 52L136.46 57L148.96 57Z" id="f2ESIvDHQt"></path><path d="M87.83 51.2L95.33 58.7L100.33 56.2L100.33 51.2L87.83 51.2Z" id="bUr8nNI9j"></path><path d="M23.8 57.76L16.3 50.27L11.3 52.77L11.3 57.77L23.8 57.76Z" id="i92ir6PSM"></path><path d="M29.76 53.46L37.26 60.95L42.26 58.45L42.26 53.45L29.76 53.46Z" id="b1PrN4Kz1"></path><path d="M52.58 53.59L60.08 61.09L65.08 58.59L65.08 53.59L52.58 53.59Z" id="a2YU4FXvgv"></path><path d="M0 7.78L5.3 9.54L8.84 9.54L0 0.71L0 7.78Z" id="b1KTr5LuBR"></path><path d="M100 8.68L105.3 10.45L108.84 10.44L100 1.61L100 8.68Z" id="j6jHbhHZF6"></path><path d="M110.53 19.33L115.84 21.09L119.37 21.09L110.53 12.25L110.53 19.33Z" id="l4kAV0GpCd"></path><path d="M143 16.68L145.5 21.68L148 24.18L148 11.68L143 16.68Z" id="a5N3PgS3tf"></path><path d="M20.15 30.23L25.45 31.99L28.98 31.99L20.15 23.15L20.15 30.23Z" id="flBIA6Bwx"></path><path d="M43.36 30.83L48.66 32.59L52.2 32.59L43.36 23.75L43.36 30.83Z" id="a1aCtRBlGK"></path><path d="M0.07 31.65L5.38 33.42L8.91 33.42L0.07 24.58L0.07 31.65Z" id="d3nQoC60W"></path><path d="M71.13 58.67L76.13 56.17L78.63 53.67L66.13 53.67L71.13 58.67Z" id="b3wHuEX871"></path><path d="M132.47 53.23L127.47 55.73L124.97 58.23L137.47 58.23L132.47 53.23Z" id="bdHVtSj5M"></path><path d="M113.7 53.53L108.7 56.04L106.2 58.54L118.7 58.53L113.7 53.53Z" id="bBkfdSCMS"></path><path d="M89.72 53.54L84.72 56.04L82.22 58.54L94.72 58.54L89.72 53.54Z" id="cD5F3nJf9"></path><path d="M50.08 53.59L45.08 56.09L42.58 58.59L55.08 58.59L50.08 53.59Z" id="iQv8MjUiA"></path><path d="M8.3 54.77L3.3 57.27L0.8 59.77L13.3 59.77L8.3 54.77Z" id="c23ip9v11K"></path><path d="M30.76 54.96L25.76 57.46L23.26 59.96L35.76 59.95L30.76 54.96Z" id="c29hLCfV0V"></path><path d="M78.13 55.17L73.13 57.67L70.63 60.17L83.13 60.17L78.13 55.17Z" id="acVHkdwh9"></path><path d="M102.33 55.2L97.33 57.7L94.83 60.2L107.33 60.2L102.33 55.2Z" id="gc2Ot6PYB"></path><path d="M141.46 62L146.46 59.5L148.96 57L136.46 57L141.46 62Z" id="aCJKzvdxC"></path><path d="M122.7 56.53L117.7 59.03L115.2 61.53L127.7 61.53L122.7 56.53Z" id="g4BSRJl5k2"></path><path d="M17.26 62.96L22.26 60.46L24.76 57.96L12.26 57.96L17.26 62.96Z" id="b5x1ZEEjI"></path><path d="M129.97 63.23L134.97 60.73L137.47 58.23L124.97 58.23L129.97 63.23Z" id="a1Xo4RPWO"></path></defs><g><g><g><use xlink:href="#bbM2WHXys" opacity="1" fill="#000000" fill-opacity="1"></use><g><use xlink:href="#bbM2WHXys" opacity="1" fill-opacity="0" stroke="#000000" stroke-width="1" stroke-opacity="0"></use></g></g><g><use xlink:href="#b2rGG6lhMp" opacity="1" fill="#000000" fill-opacity="0"></use><g><use xlink:href="#b2rGG6lhMp" opacity="1" fill-opacity="0" stroke="#872a35" stroke-width="1" stroke-opacity="1"></use></g></g><g><use xlink:href="#f5nf1V9ZH" opacity="1" fill="#000000" fill-opacity="0"></use><g><use xlink:href="#f5nf1V9ZH" opacity="1" fill-opacity="0" stroke="#92312e" stroke-width="1" stroke-opacity="1"></use></g></g><g><use xlink:href="#d3UUQSwrWU" opacity="1" fill="#000000" fill-opacity="0"></use><g><use xlink:href="#d3UUQSwrWU" opacity="1" fill-opacity="0" stroke="#9e3828" stroke-width="1" stroke-opacity="1"></use></g></g><g><use xlink:href="#ate6SRcMZ" opacity="1" fill="#000000" fill-opacity="0"></use><g><use xlink:href="#ate6SRcMZ" opacity="1" fill-opacity="0" stroke="#a93f21" stroke-width="1" stroke-opacity="1"></use></g></g><g><use xlink:href="#a2B2Om1wy" opacity="1" fill="#000000" fill-opacity="0"></use><g><use xlink:href="#a2B2Om1wy" opacity="1" fill-opacity="0" stroke="#b5471b" stroke-width="1" stroke-opacity="1"></use></g></g><g><use xlink:href="#bJM09M9H0" opacity="1" fill="#000000" fill-opacity="0"></use><g><use xlink:href="#bJM09M9H0" opacity="1" fill-opacity="0" stroke="#c04e14" stroke-width="1" stroke-opacity="1"></use></g></g><g><use xlink:href="#ciehXY6IU" opacity="1" fill="#000000" fill-opacity="0"></use><g><use xlink:href="#ciehXY6IU" opacity="1" fill-opacity="0" stroke="#cc550e" stroke-width="1" stroke-opacity="1"></use></g></g><g><use xlink:href="#a4i0ruAou8" opacity="1" fill="#000000" fill-opacity="0"></use><g><use xlink:href="#a4i0ruAou8" opacity="1" fill-opacity="0" stroke="#d85d07" stroke-width="1" stroke-opacity="1"></use></g></g><g><use xlink:href="#bglnO6HiS" opacity="1" fill="#000000" fill-opacity="0"></use><g><use xlink:href="#bglnO6HiS" opacity="1" fill-opacity="0" stroke="#e06303" stroke-width="1" stroke-opacity="1"></use></g></g><g><use xlink:href="#aiZQnIaVi" opacity="1" fill="#000000" fill-opacity="0"></use><g><use xlink:href="#aiZQnIaVi" opacity="1" fill-opacity="0" stroke="#de6805" stroke-width="1" stroke-opacity="1"></use></g></g><g><use xlink:href="#ah3LAUWdL" opacity="1" fill="#000000" fill-opacity="0"></use><g><use xlink:href="#ah3LAUWdL" opacity="1" fill-opacity="0" stroke="#dd6c07" stroke-width="1" stroke-opacity="1"></use></g></g><g><use xlink:href="#efW5R4Npo" opacity="1" fill="#000000" fill-opacity="0"></use><g><use xlink:href="#efW5R4Npo" opacity="1" fill-opacity="0" stroke="#db710a" stroke-width="1" stroke-opacity="1"></use></g></g><g><use xlink:href="#b3ppjXIL5" opacity="1" fill="#000000" fill-opacity="0"></use><g><use xlink:href="#b3ppjXIL5" opacity="1" fill-opacity="0" stroke="#d9750c" stroke-width="1" stroke-opacity="1"></use></g></g><g><use xlink:href="#b4UTsUurQV" opacity="1" fill="#000000" fill-opacity="0"></use><g><use xlink:href="#b4UTsUurQV" opacity="1" fill-opacity="0" stroke="#d8790e" stroke-width="1" stroke-opacity="1"></use></g></g><g><use xlink:href="#dO6CA6gOy" opacity="1" fill="#000000" fill-opacity="0"></use><g><use xlink:href="#dO6CA6gOy" opacity="1" fill-opacity="0" stroke="#d67e10" stroke-width="1" stroke-opacity="1"></use></g></g><g><use xlink:href="#a7N0Byxb1c" opacity="1" fill="#000000" fill-opacity="0"></use><g><use xlink:href="#a7N0Byxb1c" opacity="1" fill-opacity="0" stroke="#d48212" stroke-width="1" stroke-opacity="1"></use></g></g><g><use xlink:href="#cWEWaXXXo" opacity="1" fill="#000000" fill-opacity="0"></use><g><use xlink:href="#cWEWaXXXo" opacity="1" fill-opacity="0" stroke="#d38613" stroke-width="1" stroke-opacity="1"></use></g></g><g><use xlink:href="#dYYg39N0" opacity="1" fill="#000000" fill-opacity="0"></use><g><use xlink:href="#dYYg39N0" opacity="1" fill-opacity="0" stroke="#d18b11" stroke-width="1" stroke-opacity="1"></use></g></g><g><use xlink:href="#b2l9b2g7zf" opacity="1" fill="#000000" fill-opacity="0"></use><g><use xlink:href="#b2l9b2g7zf" opacity="1" fill-opacity="0" stroke="#cf8f0f" stroke-width="1" stroke-opacity="1"></use></g></g><g><use xlink:href="#a1FfeureKL" opacity="1" fill="#000000" fill-opacity="0"></use><g><use xlink:href="#a1FfeureKL" opacity="1" fill-opacity="0" stroke="#cd940d" stroke-width="1" stroke-opacity="1"></use></g></g><g><use xlink:href="#aHEN4XKrw" opacity="1" fill="#000000" fill-opacity="0"></use><g><use xlink:href="#aHEN4XKrw" opacity="1" fill-opacity="0" stroke="#cc980c" stroke-width="1" stroke-opacity="1"></use></g></g><g><use xlink:href="#f2pbd3yJb9" opacity="1" fill="#000000" fill-opacity="0"></use><g><use xlink:href="#f2pbd3yJb9" opacity="1" fill-opacity="0" stroke="#ca9c0a" stroke-width="1" stroke-opacity="1"></use></g></g><g><use xlink:href="#a3zwbWcnIZ" opacity="1" fill="#000000" fill-opacity="0"></use><g><use xlink:href="#a3zwbWcnIZ" opacity="1" fill-opacity="0" stroke="#c8a108" stroke-width="1" stroke-opacity="1"></use></g></g><g><use xlink:href="#d13nQokHt0" opacity="1" fill="#000000" fill-opacity="0"></use><g><use xlink:href="#d13nQokHt0" opacity="1" fill-opacity="0" stroke="#c6a506" stroke-width="1" stroke-opacity="1"></use></g></g><g><use xlink:href="#c1As4Ucu0W" opacity="1" fill="#000000" fill-opacity="0"></use><g><use xlink:href="#c1As4Ucu0W" opacity="1" fill-opacity="0" stroke="#c2a80a" stroke-width="1" stroke-opacity="1"></use></g></g><g><use xlink:href="#jCdYyfW6q" opacity="1" fill="#000000" fill-opacity="0"></use><g><use xlink:href="#jCdYyfW6q" opacity="1" fill-opacity="0" stroke="#bdaa10" stroke-width="1" stroke-opacity="1"></use></g></g><g><use xlink:href="#b2cxb4ZE06" opacity="1" fill="#000000" fill-opacity="0"></use><g><use xlink:href="#b2cxb4ZE06" opacity="1" fill-opacity="0" stroke="#b8ad17" stroke-width="1" stroke-opacity="1"></use></g></g><g><use xlink:href="#g5Lm6M7D8" opacity="1" fill="#000000" fill-opacity="0"></use><g><use xlink:href="#g5Lm6M7D8" opacity="1" fill-opacity="0" stroke="#b3af1d" stroke-width="1" stroke-opacity="1"></use></g></g><g><use xlink:href="#dx0o3FebC" opacity="1" fill="#000000" fill-opacity="0"></use><g><use xlink:href="#dx0o3FebC" opacity="1" fill-opacity="0" stroke="#aeb124" stroke-width="1" stroke-opacity="1"></use></g></g><g><use xlink:href="#j80MSz9Sa" opacity="1" fill="#000000" fill-opacity="0"></use><g><use xlink:href="#j80MSz9Sa" opacity="1" fill-opacity="0" stroke="#a8b42a" stroke-width="1" stroke-opacity="1"></use></g></g><g><use xlink:href="#f4KskHVvX" opacity="1" fill="#000000" fill-opacity="0"></use><g><use xlink:href="#f4KskHVvX" opacity="1" fill-opacity="0" stroke="#a3b630" stroke-width="1" stroke-opacity="1"></use></g></g><g><use xlink:href="#b2VTSasAW" opacity="1" fill="#000000" fill-opacity="0"></use><g><use xlink:href="#b2VTSasAW" opacity="1" fill-opacity="0" stroke="#9eb837" stroke-width="1" stroke-opacity="1"></use></g></g><g><use xlink:href="#agdqGb8GC" opacity="1" fill="#000000" fill-opacity="0"></use><g><use xlink:href="#agdqGb8GC" opacity="1" fill-opacity="0" stroke="#99b942" stroke-width="1" stroke-opacity="1"></use></g></g><g><use xlink:href="#be0nBZeOw" opacity="1" fill="#000000" fill-opacity="0"></use><g><use xlink:href="#be0nBZeOw" opacity="1" fill-opacity="0" stroke="#93ba4d" stroke-width="1" stroke-opacity="1"></use></g></g><g><use xlink:href="#f2uPTOpBL" opacity="1" fill="#000000" fill-opacity="0"></use><g><use xlink:href="#f2uPTOpBL" opacity="1" fill-opacity="0" stroke="#8ebb59" stroke-width="1" stroke-opacity="1"></use></g></g><g><use xlink:href="#b8lTbMW11A" opacity="1" fill="#000000" fill-opacity="0"></use><g><use xlink:href="#b8lTbMW11A" opacity="1" fill-opacity="0" stroke="#88bc65" stroke-width="1" stroke-opacity="1"></use></g></g><g><use xlink:href="#d1FEtBDLA" opacity="1" fill="#000000" fill-opacity="0"></use><g><use xlink:href="#d1FEtBDLA" opacity="1" fill-opacity="0" stroke="#82bc70" stroke-width="1" stroke-opacity="1"></use></g></g><g><use xlink:href="#biq70yRPn" opacity="1" fill="#000000" fill-opacity="0"></use><g><use xlink:href="#biq70yRPn" opacity="1" fill-opacity="0" stroke="#7dbd7c" stroke-width="1" stroke-opacity="1"></use></g></g><g><use xlink:href="#bw1frEJJy" opacity="1" fill="#000000" fill-opacity="0"></use><g><use xlink:href="#bw1frEJJy" opacity="1" fill-opacity="0" stroke="#77be87" stroke-width="1" stroke-opacity="1"></use></g></g><g><use xlink:href="#c1orztD4XD" opacity="1" fill="#000000" fill-opacity="0"></use><g><use xlink:href="#c1orztD4XD" opacity="1" fill-opacity="0" stroke="#72be93" stroke-width="1" stroke-opacity="1"></use></g></g><g><use xlink:href="#f18422BSD1" opacity="1" fill="#000000" fill-opacity="0"></use><g><use xlink:href="#f18422BSD1" opacity="1" fill-opacity="0" stroke="#6ebe9c" stroke-width="1" stroke-opacity="1"></use></g></g><g><use xlink:href="#d1ae4IKeUw" opacity="1" fill="#000000" fill-opacity="0"></use><g><use xlink:href="#d1ae4IKeUw" opacity="1" fill-opacity="0" stroke="#6bbda5" stroke-width="1" stroke-opacity="1"></use></g></g><g><use xlink:href="#b2A5vQ7drQ" opacity="1" fill="#000000" fill-opacity="0"></use><g><use xlink:href="#b2A5vQ7drQ" opacity="1" fill-opacity="0" stroke="#67bdae" stroke-width="1" stroke-opacity="1"></use></g></g><g><use xlink:href="#a1rx3nKQ3o" opacity="1" fill="#000000" fill-opacity="0"></use><g><use xlink:href="#a1rx3nKQ3o" opacity="1" fill-opacity="0" stroke="#63bcb7" stroke-width="1" stroke-opacity="1"></use></g></g><g><use xlink:href="#e2scNclHsp" opacity="1" fill="#000000" fill-opacity="0"></use><g><use xlink:href="#e2scNclHsp" opacity="1" fill-opacity="0" stroke="#5fbbc0" stroke-width="1" stroke-opacity="1"></use></g></g><g><use xlink:href="#f2ESIvDHQt" opacity="1" fill="#000000" fill-opacity="0"></use><g><use xlink:href="#f2ESIvDHQt" opacity="1" fill-opacity="0" stroke="#5cbbc9" stroke-width="1" stroke-opacity="1"></use></g></g><g><use xlink:href="#bUr8nNI9j" opacity="1" fill="#000000" fill-opacity="0"></use><g><use xlink:href="#bUr8nNI9j" opacity="1" fill-opacity="0" stroke="#58bad2" stroke-width="1" stroke-opacity="1"></use></g></g><g><use xlink:href="#i92ir6PSM" opacity="1" fill="#000000" fill-opacity="0"></use><g><use xlink:href="#i92ir6PSM" opacity="1" fill-opacity="0" stroke="#54bada" stroke-width="1" stroke-opacity="1"></use></g></g><g><use xlink:href="#b1PrN4Kz1" opacity="1" fill="#000000" fill-opacity="0"></use><g><use xlink:href="#b1PrN4Kz1" opacity="1" fill-opacity="0" stroke="#4fbddf" stroke-width="1" stroke-opacity="1"></use></g></g><g><use xlink:href="#a2YU4FXvgv" opacity="1" fill="#000000" fill-opacity="0"></use><g><use xlink:href="#a2YU4FXvgv" opacity="1" fill-opacity="0" stroke="#4ac0e3" stroke-width="1" stroke-opacity="1"></use></g></g><g><use xlink:href="#b1KTr5LuBR" opacity="1" fill="#000000" fill-opacity="0"></use><g><use xlink:href="#b1KTr5LuBR" opacity="1" fill-opacity="0" stroke="#44c2e8" stroke-width="1" stroke-opacity="1"></use></g></g><g><use xlink:href="#j6jHbhHZF6" opacity="1" fill="#000000" fill-opacity="0"></use><g><use xlink:href="#j6jHbhHZF6" opacity="1" fill-opacity="0" stroke="#3fc5ec" stroke-width="1" stroke-opacity="1"></use></g></g><g><use xlink:href="#l4kAV0GpCd" opacity="1" fill="#000000" fill-opacity="0"></use><g><use xlink:href="#l4kAV0GpCd" opacity="1" fill-opacity="0" stroke="#3ac7f1" stroke-width="1" stroke-opacity="1"></use></g></g><g><use xlink:href="#a5N3PgS3tf" opacity="1" fill="#000000" fill-opacity="0"></use><g><use xlink:href="#a5N3PgS3tf" opacity="1" fill-opacity="0" stroke="#35caf5" stroke-width="1" stroke-opacity="1"></use></g></g><g><use xlink:href="#flBIA6Bwx" opacity="1" fill="#000000" fill-opacity="0"></use><g><use xlink:href="#flBIA6Bwx" opacity="1" fill-opacity="0" stroke="#30ccfa" stroke-width="1" stroke-opacity="1"></use></g></g><g><use xlink:href="#a1aCtRBlGK" opacity="1" fill="#000000" fill-opacity="0"></use><g><use xlink:href="#a1aCtRBlGK" opacity="1" fill-opacity="0" stroke="#2bd1fb" stroke-width="1" stroke-opacity="1"></use></g></g><g><use xlink:href="#d3nQoC60W" opacity="1" fill="#000000" fill-opacity="0"></use><g><use xlink:href="#d3nQoC60W" opacity="1" fill-opacity="0" stroke="#27d7fb" stroke-width="1" stroke-opacity="1"></use></g></g><g><use xlink:href="#b3wHuEX871" opacity="1" fill="#000000" fill-opacity="0"></use><g><use xlink:href="#b3wHuEX871" opacity="1" fill-opacity="0" stroke="#23dcfb" stroke-width="1" stroke-opacity="1"></use></g></g><g><use xlink:href="#bdHVtSj5M" opacity="1" fill="#000000" fill-opacity="0"></use><g><use xlink:href="#bdHVtSj5M" opacity="1" fill-opacity="0" stroke="#1fe2fa" stroke-width="1" stroke-opacity="1"></use></g></g><g><use xlink:href="#bBkfdSCMS" opacity="1" fill="#000000" fill-opacity="0"></use><g><use xlink:href="#bBkfdSCMS" opacity="1" fill-opacity="0" stroke="#1be8fa" stroke-width="1" stroke-opacity="1"></use></g></g><g><use xlink:href="#cD5F3nJf9" opacity="1" fill="#000000" fill-opacity="0"></use><g><use xlink:href="#cD5F3nJf9" opacity="1" fill-opacity="0" stroke="#17eef9" stroke-width="1" stroke-opacity="1"></use></g></g><g><use xlink:href="#iQv8MjUiA" opacity="1" fill="#000000" fill-opacity="0"></use><g><use xlink:href="#iQv8MjUiA" opacity="1" fill-opacity="0" stroke="#13f3f9" stroke-width="1" stroke-opacity="1"></use></g></g><g><use xlink:href="#c23ip9v11K" opacity="1" fill="#000000" fill-opacity="0"></use><g><use xlink:href="#c23ip9v11K" opacity="1" fill-opacity="0" stroke="#0ef9f9" stroke-width="1" stroke-opacity="1"></use></g></g><g><use xlink:href="#c29hLCfV0V" opacity="1" fill="#000000" fill-opacity="0"></use><g><use xlink:href="#c29hLCfV0V" opacity="1" fill-opacity="0" stroke="#0efbf9" stroke-width="1" stroke-opacity="1"></use></g></g><g><use xlink:href="#acVHkdwh9" opacity="1" fill="#000000" fill-opacity="0"></use><g><use xlink:href="#acVHkdwh9" opacity="1" fill-opacity="0" stroke="#0efbf9" stroke-width="1" stroke-opacity="1"></use></g></g><g><use xlink:href="#gc2Ot6PYB" opacity="1" fill="#000000" fill-opacity="0"></use><g><use xlink:href="#gc2Ot6PYB" opacity="1" fill-opacity="0" stroke="#0efbf9" stroke-width="1" stroke-opacity="1"></use></g></g><g><use xlink:href="#aCJKzvdxC" opacity="1" fill="#000000" fill-opacity="0"></use><g><use xlink:href="#aCJKzvdxC" opacity="1" fill-opacity="0" stroke="#0efbf9" stroke-width="1" stroke-opacity="1"></use></g></g><g><use xlink:href="#g4BSRJl5k2" opacity="1" fill="#000000" fill-opacity="0"></use><g><use xlink:href="#g4BSRJl5k2" opacity="1" fill-opacity="0" stroke="#0efbf9" stroke-width="1" stroke-opacity="1"></use></g></g><g><use xlink:href="#b5x1ZEEjI" opacity="1" fill="#000000" fill-opacity="0"></use><g><use xlink:href="#b5x1ZEEjI" opacity="1" fill-opacity="0" stroke="#0efbf9" stroke-width="1" stroke-opacity="1"></use></g></g><g><use xlink:href="#a1Xo4RPWO" opacity="1" fill="#000000" fill-opacity="0"></use><g><use xlink:href="#a1Xo4RPWO" opacity="1" fill-opacity="0" stroke="#0efbf9" stroke-width="1" stroke-opacity="1"></use></g></g></g></g></svg>