<?xml version="1.0" encoding="UTF-8" standalone="no"?>
<!DOCTYPE svg PUBLIC "-//W3C//DTD SVG 1.1//EN" "http://www.w3.org/Graphics/SVG/1.1/DTD/svg11.dtd">
<svg version="1.1" xmlns="http://www.w3.org/2000/svg" xmlns:xlink="http://www.w3.org/1999/xlink" preserveAspectRatio="xMidYMid meet" viewBox="0 0 640 640" width="640" height="640"><defs><path d="M2 8L10 10L12 6L12 2L6 0L0 0L2 8Z" id="b2qIndlugw"></path><path d="M20.77 0L12.61 1.21L12.3 5.68L13.83 9.37L20.14 8.92L25.68 6.63L20.77 0Z" id="a1EOn6jZM3"></path><path d="M34.43 0L26.27 1.21L25.96 5.68L27.49 9.37L33.8 8.92L39.34 6.63L34.43 0Z" id="a1eDXVVdl9"></path><path d="M48.09 0L39.94 1.21L39.62 5.68L41.15 9.37L47.46 8.92L53 6.63L48.09 0Z" id="aDzlhtPc8"></path><path d="M61.75 0L53.6 1.21L53.28 5.68L54.81 9.37L61.12 8.92L66.66 6.63L61.75 0Z" id="aAfeVkjbn"></path><path d="M75.42 0L67.26 1.21L66.94 5.68L68.47 9.37L74.78 8.92L80.33 6.63L75.42 0Z" id="bb7hYRsx"></path><path d="M89.08 0L80.92 1.21L80.6 5.68L82.14 9.37L88.44 8.92L93.99 6.63L89.08 0Z" id="a2qp9lglP2"></path><path d="M102.74 0L94.58 1.21L94.27 5.68L95.8 9.37L102.11 8.92L107.65 6.63L102.74 0Z" id="c4Ihi15x5c"></path><path d="M116.4 0L108.24 1.21L107.93 5.68L109.46 9.37L115.77 8.92L121.31 6.63L116.4 0Z" id="aWAtDRFVH"></path><path d="M130.06 0L121.91 1.21L121.59 5.68L123.12 9.37L129.43 8.92L134.97 6.63L130.06 0Z" id="acK2T0plJ"></path><path d="M143.72 0L135.57 1.21L135.25 5.68L136.78 9.37L143.09 8.92L148.63 6.63L143.72 0Z" id="aQSHSxj6"></path><path d="M26.51 8.05L18.35 9.26L18.03 13.72L19.56 17.42L25.87 16.97L31.42 14.67L26.51 8.05Z" id="iaUTDAjGdR"></path><path d="M40.17 8.05L32.01 9.26L31.7 13.72L33.23 17.42L39.53 16.97L45.08 14.67L40.17 8.05Z" id="cdl8H9mHZ"></path><path d="M53.83 8.05L45.67 9.26L45.36 13.72L46.89 17.42L53.2 16.97L58.74 14.67L53.83 8.05Z" id="budqhwlyY"></path><path d="M67.49 8.05L59.34 9.26L59.02 13.72L60.55 17.42L66.86 16.97L72.4 14.67L67.49 8.05Z" id="arpkXjLoO"></path><path d="M81.15 8.05L73 9.26L72.68 13.72L74.21 17.42L80.52 16.97L86.06 14.67L81.15 8.05Z" id="h4ETimF7j4"></path><path d="M94.82 8.05L86.66 9.26L86.34 13.72L87.87 17.42L94.18 16.97L99.72 14.67L94.82 8.05Z" id="a2kqRTTAu4"></path><path d="M108.48 8.05L100.32 9.26L100 13.72L101.54 17.42L107.84 16.97L113.39 14.67L108.48 8.05Z" id="bIwkTWRdv"></path><path d="M122.14 8.05L113.98 9.26L113.67 13.72L115.2 17.42L121.51 16.97L127.05 14.67L122.14 8.05Z" id="b3RXlAaiQF"></path><path d="M135.8 8.05L127.64 9.26L127.33 13.72L128.86 17.42L135.17 16.97L140.71 14.67L135.8 8.05Z" id="dcf3G5LaF"></path><path d="M10 10L2 8L0 12L0 16L6 18L12 18L10 10Z" id="a1R5bnycS"></path><path d="M141.91 9.87L139.91 17.87L143.91 19.87L147.91 19.87L149.91 13.87L149.91 7.87L141.91 9.87Z" id="a94wVQpifj"></path><path d="M32.24 16.09L24.09 17.31L23.77 21.77L25.3 25.46L31.61 25.01L37.15 22.72L32.24 16.09Z" id="dq43H2SGt"></path><path d="M45.91 16.09L37.75 17.31L37.43 21.77L38.96 25.46L45.27 25.01L50.82 22.72L45.91 16.09Z" id="a3Q6spTIUW"></path><path d="M59.57 16.09L51.41 17.31L51.09 21.77L52.63 25.46L58.93 25.01L64.48 22.72L59.57 16.09Z" id="c3TuUKDqDe"></path><path d="M73.23 16.09L65.07 17.31L64.76 21.77L66.29 25.46L72.6 25.01L78.14 22.72L73.23 16.09Z" id="amQ9NacG1"></path><path d="M86.89 16.09L78.73 17.31L78.42 21.77L79.95 25.46L86.26 25.01L91.8 22.72L86.89 16.09Z" id="c4ZLdetaF"></path><path d="M100.55 16.09L92.4 17.31L92.08 21.77L93.61 25.46L99.92 25.01L105.46 22.72L100.55 16.09Z" id="bH4xy7t09"></path><path d="M114.22 16.09L106.06 17.31L105.74 21.77L107.27 25.46L113.58 25.01L119.12 22.72L114.22 16.09Z" id="a2slQiEWow"></path><path d="M127.88 16.09L119.72 17.31L119.4 21.77L120.93 25.46L127.24 25.01L132.79 22.72L127.88 16.09Z" id="b6FVvNlKJi"></path><path d="M11.88 8.87L11.88 17.35L16.12 18.77L18.95 15.94L11.88 8.87Z" id="anXVZW3CC"></path><path d="M143.39 22.05L137.38 16.05L133.38 18.05L133.39 22.05L143.39 22.05Z" id="bxmD8JJWM"></path><path d="M10.8 23.6L4.8 17.6L0.8 19.6L0.8 23.6L10.8 23.6Z" id="aNlJXyl1k"></path><path d="M11.93 23.92L20.41 23.92L21.83 19.68L19 16.85L11.93 23.92Z" id="aetqOCw7f"></path><path d="M140.04 26.94L148.53 26.94L149.94 22.7L147.11 19.87L140.04 26.94Z" id="h12Eq6qobw"></path><path d="M141.24 28.14L135.24 22.14L131.24 24.14L131.24 28.14L141.24 28.14Z" id="a5bxSDb4Eg"></path><path d="M28.9 29.06L22.9 23.06L18.9 25.06L18.9 29.06L28.9 29.06Z" id="b3c4AX5hIM"></path><path d="M42.56 29.06L36.56 23.06L32.56 25.06L32.56 29.06L42.56 29.06Z" id="bJTcZGBM"></path><path d="M56.23 29.06L50.23 23.06L46.23 25.06L46.23 29.06L56.23 29.06Z" id="aK8JPwQl"></path><path d="M69.89 29.06L63.89 23.06L59.89 25.06L59.89 29.06L69.89 29.06Z" id="a1Dpnr26d6"></path><path d="M83.55 29.06L77.55 23.06L73.55 25.06L73.55 29.06L83.55 29.06Z" id="b3XXyuGMCC"></path><path d="M97.21 29.06L91.21 23.06L87.21 25.06L87.21 29.06L97.21 29.06Z" id="c24bUr8Qe2"></path><path d="M110.87 29.06L104.87 23.06L100.87 25.06L100.87 29.06L110.87 29.06Z" id="buS1aA4gH"></path><path d="M124.54 29.06L118.53 23.06L114.53 25.06L114.54 29.06L124.54 29.06Z" id="acWGocyha"></path><path d="M16.8 29.6L10.8 23.6L6.8 25.6L6.8 29.6L16.8 29.6Z" id="axiStVy2b"></path><path d="M134.54 31.46L128.53 25.46L124.54 27.46L124.54 31.46L134.54 31.46Z" id="b1ILnAkIc"></path><path d="M0 23.12L0 31.6L4.24 33.02L7.07 30.19L0 23.12Z" id="amesWZLX"></path><path d="M148.84 33.34L142.84 27.34L138.84 29.34L138.84 33.34L148.84 33.34Z" id="b2fSnz0mef"></path><path d="M37.3 33.86L31.3 27.86L27.3 29.86L27.3 33.86L37.3 33.86Z" id="f3DQvkKjEd"></path><path d="M50.97 33.86L44.96 27.86L40.96 29.86L40.97 33.86L50.97 33.86Z" id="b36QAX4K0Q"></path><path d="M64.63 33.86L58.63 27.86L54.63 29.86L54.63 33.86L64.63 33.86Z" id="a1i7RsFsp"></path><path d="M78.29 33.86L72.29 27.86L68.29 29.86L68.29 33.86L78.29 33.86Z" id="c1uqQBhSm1"></path><path d="M91.95 33.86L85.95 27.86L81.95 29.86L81.95 33.86L91.95 33.86Z" id="a3JLqqoTL7"></path><path d="M105.61 33.86L99.61 27.86L95.61 29.86L95.61 33.86L105.61 33.86Z" id="b153aWjyt3"></path><path d="M119.27 33.86L113.27 27.86L109.27 29.86L109.27 33.86L119.27 33.86Z" id="cXZiD4Voa"></path><path d="M24.4 34.8L18.4 28.8L14.4 30.8L14.4 34.8L24.4 34.8Z" id="d1zNRH0oDm"></path><path d="M114.54 29.06L120.54 35.06L124.54 33.06L124.54 29.06L114.54 29.06Z" id="c1hf6kIAE"></path><path d="M15.38 35.88L9.37 29.88L5.37 31.88L5.38 35.88L15.38 35.88Z" id="a15fdrSVtx"></path><path d="M142.14 36.66L136.14 30.66L132.14 32.66L132.14 36.66L142.14 36.66Z" id="eahptcucj1"></path><path d="M133.34 37.86L127.34 31.86L123.34 33.86L123.34 37.86L133.34 37.86Z" id="cQLoQtJQ5"></path><path d="M10.12 22.77L14.12 20.77L16.12 18.77L6.12 18.77L10.12 22.77Z" id="e2DzuxJPG4"></path><path d="M25.97 30.48L21.73 29.06L18.9 29.06L25.97 36.13L25.97 30.48Z" id="aSu210Osh"></path><path d="M39.64 30.48L35.39 29.06L32.56 29.06L39.64 36.13L39.64 30.48Z" id="a8sewcBx0Q"></path><path d="M53.3 30.48L49.05 29.06L46.23 29.06L53.3 36.13L53.3 30.48Z" id="hUqSNw4C6"></path><path d="M66.96 30.48L62.72 29.06L59.89 29.06L66.96 36.13L66.96 30.48Z" id="d1Ypbgm8Tx"></path><path d="M80.62 30.48L76.38 29.06L73.55 29.06L80.62 36.13L80.62 30.48Z" id="a1ZnPJzilY"></path><path d="M94.28 30.48L90.04 29.06L87.21 29.06L94.28 36.13L94.28 30.48Z" id="b1Kts3KFi"></path><path d="M107.94 30.48L103.7 29.06L100.87 29.06L107.95 36.13L107.94 30.48Z" id="d6tXGZRbB9"></path><path d="M142.84 37.34L146.84 35.34L148.84 33.34L138.84 33.34L142.84 37.34Z" id="a3N8eoP1eq"></path><path d="M37.3 33.86L33.3 35.86L31.3 37.86L41.3 37.86L37.3 33.86Z" id="b21NkLvXp"></path><path d="M50.97 33.86L46.97 35.86L44.97 37.86L54.97 37.86L50.97 33.86Z" id="a2aIVSvw0k"></path><path d="M64.63 33.86L60.63 35.86L58.63 37.86L68.63 37.86L64.63 33.86Z" id="dMzLySRM1"></path><path d="M78.29 33.86L74.29 35.86L72.29 37.86L82.29 37.86L78.29 33.86Z" id="b2MnNEQvqS"></path><path d="M91.95 33.86L87.95 35.86L85.95 37.86L95.95 37.86L91.95 33.86Z" id="e36uHdPb2Y"></path><path d="M105.61 33.86L101.61 35.86L99.61 37.86L109.61 37.86L105.61 33.86Z" id="d2B31hFusG"></path><path d="M119.27 33.86L115.27 35.86L113.27 37.86L123.27 37.86L119.27 33.86Z" id="b3VnyGTP1V"></path><path d="M0 37.26L4.24 38.67L7.07 38.67L0 31.6L0 37.26Z" id="l8KDsHeeB"></path><path d="M24.4 34.8L20.4 36.8L18.4 38.8L28.4 38.8L24.4 34.8Z" id="b4HHDl0ok7"></path><path d="M146 35.77L142 37.77L140 39.77L150 39.77L146 35.77Z" id="b2GiR9RYB4"></path><path d="M15.38 35.88L11.38 37.88L9.38 39.88L19.38 39.88L15.38 35.88Z" id="c1zMVAG8Jw"></path><path d="M43.7 36.66L39.7 38.66L37.7 40.66L47.7 40.66L43.7 36.66Z" id="blwiAFivb"></path><path d="M57.37 36.66L53.37 38.66L51.37 40.66L61.37 40.66L57.37 36.66Z" id="bh8jiYab7"></path><path d="M71.03 36.66L67.03 38.66L65.03 40.66L75.03 40.66L71.03 36.66Z" id="a19mtekYrZ"></path><path d="M84.69 36.66L80.69 38.66L78.69 40.66L88.69 40.66L84.69 36.66Z" id="f2aghS1nb6"></path><path d="M98.35 36.66L94.35 38.66L92.35 40.66L102.35 40.66L98.35 36.66Z" id="btgGZFNtD"></path><path d="M112.01 36.66L108.01 38.66L106.01 40.66L116.01 40.66L112.01 36.66Z" id="bgqDlVaPu"></path><path d="M136.14 36.66L132.14 38.66L130.14 40.66L140.14 40.66L136.14 36.66Z" id="a28BZ7gC1y"></path><path d="M29.77 41.56L34.23 41.24L36.85 40.16L27.61 36.33L29.77 41.56Z" id="a2HFDKc7gr"></path><path d="M123.27 37.86L119.27 39.86L117.28 41.86L127.28 41.86L123.27 37.86Z" id="c1lZ7Hhr6Z"></path><path d="M2.17 42.49L6.63 42.17L9.24 41.09L0 37.26L2.17 42.49Z" id="j3gxgwIPip"></path><path d="M10.3 1.39L13.18 0.96L10.87 0L10.3 1.39Z" id="aEcPNr6JK"></path><path d="M22.07 1.39L24.95 0.96L22.64 0L22.07 1.39Z" id="asmmnc8iy"></path><path d="M25.01 1.39L27.89 0.96L25.58 0L25.01 1.39Z" id="bf7McghGX"></path><path d="M36.04 1.39L38.93 0.96L36.62 0L36.04 1.39Z" id="dLlm1XV3p"></path><path d="M49.28 1.39L52.17 0.96L49.86 0L49.28 1.39Z" id="b4ivmasfKF"></path><path d="M52.23 1.39L55.11 0.96L52.8 0L52.23 1.39Z" id="dpg8aKtYj"></path><path d="M63.26 1.39L66.14 0.96L63.83 0L63.26 1.39Z" id="b1tHoWXJD"></path><path d="M76.5 1.39L79.38 0.96L77.07 0L76.5 1.39Z" id="cRhmUJjSE"></path><path d="M79.44 1.39L82.33 0.96L80.02 0L79.44 1.39Z" id="ebtKLkOGs"></path><path d="M90.48 1.39L93.36 0.96L91.05 0L90.48 1.39Z" id="egHQlymXR"></path><path d="M93.42 1.39L96.3 0.96L93.99 0L93.42 1.39Z" id="h1Z6jXexcx"></path><path d="M104.45 1.39L107.34 0.96L105.03 0L104.45 1.39Z" id="c2CLDXp35"></path><path d="M117.69 1.39L120.58 0.96L118.27 0L117.69 1.39Z" id="b2QWHQUlVR"></path><path d="M120.64 1.39L123.52 0.96L121.21 0L120.64 1.39Z" id="cnsHKstFn"></path><path d="M131.67 1.39L134.55 0.96L132.24 0L131.67 1.39Z" id="cwGwWJc6i"></path><path d="M144.91 1.39L147.79 0.96L145.48 0L144.91 1.39Z" id="a4qOVViWJ"></path><path d="M66.01 1.4L68.89 0.97L66.58 0.01L66.01 1.4Z" id="ce8L52lMt"></path><path d="M39.09 1.5L41.59 0L39.09 0L39.09 1.5Z" id="b5rqXlpFZY"></path><path d="M107.68 1.5L110.18 0L107.68 0L107.68 1.5Z" id="abGzTdLHf"></path><path d="M134.96 1.5L137.46 0L134.96 0L134.96 1.5Z" id="c1ABF9E4GP"></path><path d="M0 150L150 150L150 0L0 0L0 150Z" id="a1Q9cYvR8f"></path></defs><g><g><g><use xlink:href="#b2qIndlugw" opacity="1" fill="#000000" fill-opacity="0"></use><g><use xlink:href="#b2qIndlugw" opacity="1" fill-opacity="0" stroke="#872a35" stroke-width="1" stroke-opacity="1"></use></g></g><g><use xlink:href="#a1EOn6jZM3" opacity="1" fill="#000000" fill-opacity="0"></use><g><use xlink:href="#a1EOn6jZM3" opacity="1" fill-opacity="0" stroke="#8e2e30" stroke-width="1" stroke-opacity="1"></use></g></g><g><use xlink:href="#a1eDXVVdl9" opacity="1" fill="#000000" fill-opacity="0"></use><g><use xlink:href="#a1eDXVVdl9" opacity="1" fill-opacity="0" stroke="#95332c" stroke-width="1" stroke-opacity="1"></use></g></g><g><use xlink:href="#aDzlhtPc8" opacity="1" fill="#000000" fill-opacity="0"></use><g><use xlink:href="#aDzlhtPc8" opacity="1" fill-opacity="0" stroke="#9c3728" stroke-width="1" stroke-opacity="1"></use></g></g><g><use xlink:href="#aAfeVkjbn" opacity="1" fill="#000000" fill-opacity="0"></use><g><use xlink:href="#aAfeVkjbn" opacity="1" fill-opacity="0" stroke="#a43c24" stroke-width="1" stroke-opacity="1"></use></g></g><g><use xlink:href="#bb7hYRsx" opacity="1" fill="#000000" fill-opacity="0"></use><g><use xlink:href="#bb7hYRsx" opacity="1" fill-opacity="0" stroke="#ab4120" stroke-width="1" stroke-opacity="1"></use></g></g><g><use xlink:href="#a2qp9lglP2" opacity="1" fill="#000000" fill-opacity="0"></use><g><use xlink:href="#a2qp9lglP2" opacity="1" fill-opacity="0" stroke="#b2451c" stroke-width="1" stroke-opacity="1"></use></g></g><g><use xlink:href="#c4Ihi15x5c" opacity="1" fill="#000000" fill-opacity="0"></use><g><use xlink:href="#c4Ihi15x5c" opacity="1" fill-opacity="0" stroke="#ba4a18" stroke-width="1" stroke-opacity="1"></use></g></g><g><use xlink:href="#aWAtDRFVH" opacity="1" fill="#000000" fill-opacity="0"></use><g><use xlink:href="#aWAtDRFVH" opacity="1" fill-opacity="0" stroke="#c14e14" stroke-width="1" stroke-opacity="1"></use></g></g><g><use xlink:href="#acK2T0plJ" opacity="1" fill="#000000" fill-opacity="0"></use><g><use xlink:href="#acK2T0plJ" opacity="1" fill-opacity="0" stroke="#c85310" stroke-width="1" stroke-opacity="1"></use></g></g><g><use xlink:href="#aQSHSxj6" opacity="1" fill="#000000" fill-opacity="0"></use><g><use xlink:href="#aQSHSxj6" opacity="1" fill-opacity="0" stroke="#cf580c" stroke-width="1" stroke-opacity="1"></use></g></g><g><use xlink:href="#iaUTDAjGdR" opacity="1" fill="#000000" fill-opacity="0"></use><g><use xlink:href="#iaUTDAjGdR" opacity="1" fill-opacity="0" stroke="#d75c08" stroke-width="1" stroke-opacity="1"></use></g></g><g><use xlink:href="#cdl8H9mHZ" opacity="1" fill="#000000" fill-opacity="0"></use><g><use xlink:href="#cdl8H9mHZ" opacity="1" fill-opacity="0" stroke="#de6104" stroke-width="1" stroke-opacity="1"></use></g></g><g><use xlink:href="#budqhwlyY" opacity="1" fill="#000000" fill-opacity="0"></use><g><use xlink:href="#budqhwlyY" opacity="1" fill-opacity="0" stroke="#e06403" stroke-width="1" stroke-opacity="1"></use></g></g><g><use xlink:href="#arpkXjLoO" opacity="1" fill="#000000" fill-opacity="0"></use><g><use xlink:href="#arpkXjLoO" opacity="1" fill-opacity="0" stroke="#df6705" stroke-width="1" stroke-opacity="1"></use></g></g><g><use xlink:href="#h4ETimF7j4" opacity="1" fill="#000000" fill-opacity="0"></use><g><use xlink:href="#h4ETimF7j4" opacity="1" fill-opacity="0" stroke="#de6a06" stroke-width="1" stroke-opacity="1"></use></g></g><g><use xlink:href="#a2kqRTTAu4" opacity="1" fill="#000000" fill-opacity="0"></use><g><use xlink:href="#a2kqRTTAu4" opacity="1" fill-opacity="0" stroke="#dd6d08" stroke-width="1" stroke-opacity="1"></use></g></g><g><use xlink:href="#bIwkTWRdv" opacity="1" fill="#000000" fill-opacity="0"></use><g><use xlink:href="#bIwkTWRdv" opacity="1" fill-opacity="0" stroke="#dc6f09" stroke-width="1" stroke-opacity="1"></use></g></g><g><use xlink:href="#b3RXlAaiQF" opacity="1" fill="#000000" fill-opacity="0"></use><g><use xlink:href="#b3RXlAaiQF" opacity="1" fill-opacity="0" stroke="#db720a" stroke-width="1" stroke-opacity="1"></use></g></g><g><use xlink:href="#dcf3G5LaF" opacity="1" fill="#000000" fill-opacity="0"></use><g><use xlink:href="#dcf3G5LaF" opacity="1" fill-opacity="0" stroke="#d9750c" stroke-width="1" stroke-opacity="1"></use></g></g><g><use xlink:href="#a1R5bnycS" opacity="1" fill="#000000" fill-opacity="0"></use><g><use xlink:href="#a1R5bnycS" opacity="1" fill-opacity="0" stroke="#d8780d" stroke-width="1" stroke-opacity="1"></use></g></g><g><use xlink:href="#a94wVQpifj" opacity="1" fill="#000000" fill-opacity="0"></use><g><use xlink:href="#a94wVQpifj" opacity="1" fill-opacity="0" stroke="#d77a0e" stroke-width="1" stroke-opacity="1"></use></g></g><g><use xlink:href="#dq43H2SGt" opacity="1" fill="#000000" fill-opacity="0"></use><g><use xlink:href="#dq43H2SGt" opacity="1" fill-opacity="0" stroke="#d67d10" stroke-width="1" stroke-opacity="1"></use></g></g><g><use xlink:href="#a3Q6spTIUW" opacity="1" fill="#000000" fill-opacity="0"></use><g><use xlink:href="#a3Q6spTIUW" opacity="1" fill-opacity="0" stroke="#d58011" stroke-width="1" stroke-opacity="1"></use></g></g><g><use xlink:href="#c3TuUKDqDe" opacity="1" fill="#000000" fill-opacity="0"></use><g><use xlink:href="#c3TuUKDqDe" opacity="1" fill-opacity="0" stroke="#d48313" stroke-width="1" stroke-opacity="1"></use></g></g><g><use xlink:href="#amQ9NacG1" opacity="1" fill="#000000" fill-opacity="0"></use><g><use xlink:href="#amQ9NacG1" opacity="1" fill-opacity="0" stroke="#d38513" stroke-width="1" stroke-opacity="1"></use></g></g><g><use xlink:href="#c4ZLdetaF" opacity="1" fill="#000000" fill-opacity="0"></use><g><use xlink:href="#c4ZLdetaF" opacity="1" fill-opacity="0" stroke="#d28812" stroke-width="1" stroke-opacity="1"></use></g></g><g><use xlink:href="#bH4xy7t09" opacity="1" fill="#000000" fill-opacity="0"></use><g><use xlink:href="#bH4xy7t09" opacity="1" fill-opacity="0" stroke="#d18b11" stroke-width="1" stroke-opacity="1"></use></g></g><g><use xlink:href="#a2slQiEWow" opacity="1" fill="#000000" fill-opacity="0"></use><g><use xlink:href="#a2slQiEWow" opacity="1" fill-opacity="0" stroke="#d08e10" stroke-width="1" stroke-opacity="1"></use></g></g><g><use xlink:href="#b6FVvNlKJi" opacity="1" fill="#000000" fill-opacity="0"></use><g><use xlink:href="#b6FVvNlKJi" opacity="1" fill-opacity="0" stroke="#cf900f" stroke-width="1" stroke-opacity="1"></use></g></g><g><use xlink:href="#anXVZW3CC" opacity="1" fill="#000000" fill-opacity="0"></use><g><use xlink:href="#anXVZW3CC" opacity="1" fill-opacity="0" stroke="#cd930d" stroke-width="1" stroke-opacity="1"></use></g></g><g><use xlink:href="#bxmD8JJWM" opacity="1" fill="#000000" fill-opacity="0"></use><g><use xlink:href="#bxmD8JJWM" opacity="1" fill-opacity="0" stroke="#cc960c" stroke-width="1" stroke-opacity="1"></use></g></g><g><use xlink:href="#aNlJXyl1k" opacity="1" fill="#000000" fill-opacity="0"></use><g><use xlink:href="#aNlJXyl1k" opacity="1" fill-opacity="0" stroke="#cb990b" stroke-width="1" stroke-opacity="1"></use></g></g><g><use xlink:href="#aetqOCw7f" opacity="1" fill="#000000" fill-opacity="0"></use><g><use xlink:href="#aetqOCw7f" opacity="1" fill-opacity="0" stroke="#ca9b0a" stroke-width="1" stroke-opacity="1"></use></g></g><g><use xlink:href="#h12Eq6qobw" opacity="1" fill="#000000" fill-opacity="0"></use><g><use xlink:href="#h12Eq6qobw" opacity="1" fill-opacity="0" stroke="#c99e09" stroke-width="1" stroke-opacity="1"></use></g></g><g><use xlink:href="#a5bxSDb4Eg" opacity="1" fill="#000000" fill-opacity="0"></use><g><use xlink:href="#a5bxSDb4Eg" opacity="1" fill-opacity="0" stroke="#c8a108" stroke-width="1" stroke-opacity="1"></use></g></g><g><use xlink:href="#b3c4AX5hIM" opacity="1" fill="#000000" fill-opacity="0"></use><g><use xlink:href="#b3c4AX5hIM" opacity="1" fill-opacity="0" stroke="#c7a407" stroke-width="1" stroke-opacity="1"></use></g></g><g><use xlink:href="#bJTcZGBM" opacity="1" fill="#000000" fill-opacity="0"></use><g><use xlink:href="#bJTcZGBM" opacity="1" fill-opacity="0" stroke="#c6a706" stroke-width="1" stroke-opacity="1"></use></g></g><g><use xlink:href="#aK8JPwQl" opacity="1" fill="#000000" fill-opacity="0"></use><g><use xlink:href="#aK8JPwQl" opacity="1" fill-opacity="0" stroke="#c2a80a" stroke-width="1" stroke-opacity="1"></use></g></g><g><use xlink:href="#a1Dpnr26d6" opacity="1" fill="#000000" fill-opacity="0"></use><g><use xlink:href="#a1Dpnr26d6" opacity="1" fill-opacity="0" stroke="#bfa90e" stroke-width="1" stroke-opacity="1"></use></g></g><g><use xlink:href="#b3XXyuGMCC" opacity="1" fill="#000000" fill-opacity="0"></use><g><use xlink:href="#b3XXyuGMCC" opacity="1" fill-opacity="0" stroke="#bcab12" stroke-width="1" stroke-opacity="1"></use></g></g><g><use xlink:href="#c24bUr8Qe2" opacity="1" fill="#000000" fill-opacity="0"></use><g><use xlink:href="#c24bUr8Qe2" opacity="1" fill-opacity="0" stroke="#b9ac16" stroke-width="1" stroke-opacity="1"></use></g></g><g><use xlink:href="#buS1aA4gH" opacity="1" fill="#000000" fill-opacity="0"></use><g><use xlink:href="#buS1aA4gH" opacity="1" fill-opacity="0" stroke="#b5ae1a" stroke-width="1" stroke-opacity="1"></use></g></g><g><use xlink:href="#acWGocyha" opacity="1" fill="#000000" fill-opacity="0"></use><g><use xlink:href="#acWGocyha" opacity="1" fill-opacity="0" stroke="#b2af1e" stroke-width="1" stroke-opacity="1"></use></g></g><g><use xlink:href="#axiStVy2b" opacity="1" fill="#000000" fill-opacity="0"></use><g><use xlink:href="#axiStVy2b" opacity="1" fill-opacity="0" stroke="#afb122" stroke-width="1" stroke-opacity="1"></use></g></g><g><use xlink:href="#b1ILnAkIc" opacity="1" fill="#000000" fill-opacity="0"></use><g><use xlink:href="#b1ILnAkIc" opacity="1" fill-opacity="0" stroke="#acb226" stroke-width="1" stroke-opacity="1"></use></g></g><g><use xlink:href="#amesWZLX" opacity="1" fill="#000000" fill-opacity="0"></use><g><use xlink:href="#amesWZLX" opacity="1" fill-opacity="0" stroke="#a8b42a" stroke-width="1" stroke-opacity="1"></use></g></g><g><use xlink:href="#b2fSnz0mef" opacity="1" fill="#000000" fill-opacity="0"></use><g><use xlink:href="#b2fSnz0mef" opacity="1" fill-opacity="0" stroke="#a5b52e" stroke-width="1" stroke-opacity="1"></use></g></g><g><use xlink:href="#f3DQvkKjEd" opacity="1" fill="#000000" fill-opacity="0"></use><g><use xlink:href="#f3DQvkKjEd" opacity="1" fill-opacity="0" stroke="#a2b732" stroke-width="1" stroke-opacity="1"></use></g></g><g><use xlink:href="#b36QAX4K0Q" opacity="1" fill="#000000" fill-opacity="0"></use><g><use xlink:href="#b36QAX4K0Q" opacity="1" fill-opacity="0" stroke="#9fb836" stroke-width="1" stroke-opacity="1"></use></g></g><g><use xlink:href="#a1i7RsFsp" opacity="1" fill="#000000" fill-opacity="0"></use><g><use xlink:href="#a1i7RsFsp" opacity="1" fill-opacity="0" stroke="#9bb93c" stroke-width="1" stroke-opacity="1"></use></g></g><g><use xlink:href="#c1uqQBhSm1" opacity="1" fill="#000000" fill-opacity="0"></use><g><use xlink:href="#c1uqQBhSm1" opacity="1" fill-opacity="0" stroke="#98b944" stroke-width="1" stroke-opacity="1"></use></g></g><g><use xlink:href="#a3JLqqoTL7" opacity="1" fill="#000000" fill-opacity="0"></use><g><use xlink:href="#a3JLqqoTL7" opacity="1" fill-opacity="0" stroke="#94ba4b" stroke-width="1" stroke-opacity="1"></use></g></g><g><use xlink:href="#b153aWjyt3" opacity="1" fill="#000000" fill-opacity="0"></use><g><use xlink:href="#b153aWjyt3" opacity="1" fill-opacity="0" stroke="#91ba52" stroke-width="1" stroke-opacity="1"></use></g></g><g><use xlink:href="#cXZiD4Voa" opacity="1" fill="#000000" fill-opacity="0"></use><g><use xlink:href="#cXZiD4Voa" opacity="1" fill-opacity="0" stroke="#8dbb5a" stroke-width="1" stroke-opacity="1"></use></g></g><g><use xlink:href="#d1zNRH0oDm" opacity="1" fill="#000000" fill-opacity="0"></use><g><use xlink:href="#d1zNRH0oDm" opacity="1" fill-opacity="0" stroke="#8abb61" stroke-width="1" stroke-opacity="1"></use></g></g><g><use xlink:href="#c1hf6kIAE" opacity="1" fill="#000000" fill-opacity="0"></use><g><use xlink:href="#c1hf6kIAE" opacity="1" fill-opacity="0" stroke="#86bc68" stroke-width="1" stroke-opacity="1"></use></g></g><g><use xlink:href="#a15fdrSVtx" opacity="1" fill="#000000" fill-opacity="0"></use><g><use xlink:href="#a15fdrSVtx" opacity="1" fill-opacity="0" stroke="#83bc6f" stroke-width="1" stroke-opacity="1"></use></g></g><g><use xlink:href="#eahptcucj1" opacity="1" fill="#000000" fill-opacity="0"></use><g><use xlink:href="#eahptcucj1" opacity="1" fill-opacity="0" stroke="#7fbd77" stroke-width="1" stroke-opacity="1"></use></g></g><g><use xlink:href="#cQLoQtJQ5" opacity="1" fill="#000000" fill-opacity="0"></use><g><use xlink:href="#cQLoQtJQ5" opacity="1" fill-opacity="0" stroke="#7cbd7e" stroke-width="1" stroke-opacity="1"></use></g></g><g><use xlink:href="#e2DzuxJPG4" opacity="1" fill="#000000" fill-opacity="0"></use><g><use xlink:href="#e2DzuxJPG4" opacity="1" fill-opacity="0" stroke="#78be85" stroke-width="1" stroke-opacity="1"></use></g></g><g><use xlink:href="#aSu210Osh" opacity="1" fill="#000000" fill-opacity="0"></use><g><use xlink:href="#aSu210Osh" opacity="1" fill-opacity="0" stroke="#75be8d" stroke-width="1" stroke-opacity="1"></use></g></g><g><use xlink:href="#a8sewcBx0Q" opacity="1" fill="#000000" fill-opacity="0"></use><g><use xlink:href="#a8sewcBx0Q" opacity="1" fill-opacity="0" stroke="#72be93" stroke-width="1" stroke-opacity="1"></use></g></g><g><use xlink:href="#hUqSNw4C6" opacity="1" fill="#000000" fill-opacity="0"></use><g><use xlink:href="#hUqSNw4C6" opacity="1" fill-opacity="0" stroke="#6fbe99" stroke-width="1" stroke-opacity="1"></use></g></g><g><use xlink:href="#d1Ypbgm8Tx" opacity="1" fill="#000000" fill-opacity="0"></use><g><use xlink:href="#d1Ypbgm8Tx" opacity="1" fill-opacity="0" stroke="#6dbe9f" stroke-width="1" stroke-opacity="1"></use></g></g><g><use xlink:href="#a1ZnPJzilY" opacity="1" fill="#000000" fill-opacity="0"></use><g><use xlink:href="#a1ZnPJzilY" opacity="1" fill-opacity="0" stroke="#6bbda5" stroke-width="1" stroke-opacity="1"></use></g></g><g><use xlink:href="#b1Kts3KFi" opacity="1" fill="#000000" fill-opacity="0"></use><g><use xlink:href="#b1Kts3KFi" opacity="1" fill-opacity="0" stroke="#68bdaa" stroke-width="1" stroke-opacity="1"></use></g></g><g><use xlink:href="#d6tXGZRbB9" opacity="1" fill="#000000" fill-opacity="0"></use><g><use xlink:href="#d6tXGZRbB9" opacity="1" fill-opacity="0" stroke="#66bcb0" stroke-width="1" stroke-opacity="1"></use></g></g><g><use xlink:href="#a3N8eoP1eq" opacity="1" fill="#000000" fill-opacity="0"></use><g><use xlink:href="#a3N8eoP1eq" opacity="1" fill-opacity="0" stroke="#64bcb6" stroke-width="1" stroke-opacity="1"></use></g></g><g><use xlink:href="#b21NkLvXp" opacity="1" fill="#000000" fill-opacity="0"></use><g><use xlink:href="#b21NkLvXp" opacity="1" fill-opacity="0" stroke="#61bcbc" stroke-width="1" stroke-opacity="1"></use></g></g><g><use xlink:href="#a2aIVSvw0k" opacity="1" fill="#000000" fill-opacity="0"></use><g><use xlink:href="#a2aIVSvw0k" opacity="1" fill-opacity="0" stroke="#5fbbc1" stroke-width="1" stroke-opacity="1"></use></g></g><g><use xlink:href="#dMzLySRM1" opacity="1" fill="#000000" fill-opacity="0"></use><g><use xlink:href="#dMzLySRM1" opacity="1" fill-opacity="0" stroke="#5dbbc7" stroke-width="1" stroke-opacity="1"></use></g></g><g><use xlink:href="#b2MnNEQvqS" opacity="1" fill="#000000" fill-opacity="0"></use><g><use xlink:href="#b2MnNEQvqS" opacity="1" fill-opacity="0" stroke="#5abacd" stroke-width="1" stroke-opacity="1"></use></g></g><g><use xlink:href="#e36uHdPb2Y" opacity="1" fill="#000000" fill-opacity="0"></use><g><use xlink:href="#e36uHdPb2Y" opacity="1" fill-opacity="0" stroke="#58bad3" stroke-width="1" stroke-opacity="1"></use></g></g><g><use xlink:href="#d2B31hFusG" opacity="1" fill="#000000" fill-opacity="0"></use><g><use xlink:href="#d2B31hFusG" opacity="1" fill-opacity="0" stroke="#56bad9" stroke-width="1" stroke-opacity="1"></use></g></g><g><use xlink:href="#b3VnyGTP1V" opacity="1" fill="#000000" fill-opacity="0"></use><g><use xlink:href="#b3VnyGTP1V" opacity="1" fill-opacity="0" stroke="#52bbdb" stroke-width="1" stroke-opacity="1"></use></g></g><g><use xlink:href="#l8KDsHeeB" opacity="1" fill="#000000" fill-opacity="0"></use><g><use xlink:href="#l8KDsHeeB" opacity="1" fill-opacity="0" stroke="#4fbdde" stroke-width="1" stroke-opacity="1"></use></g></g><g><use xlink:href="#b4HHDl0ok7" opacity="1" fill="#000000" fill-opacity="0"></use><g><use xlink:href="#b4HHDl0ok7" opacity="1" fill-opacity="0" stroke="#4cbee1" stroke-width="1" stroke-opacity="1"></use></g></g><g><use xlink:href="#b2GiR9RYB4" opacity="1" fill="#000000" fill-opacity="0"></use><g><use xlink:href="#b2GiR9RYB4" opacity="1" fill-opacity="0" stroke="#49c0e4" stroke-width="1" stroke-opacity="1"></use></g></g><g><use xlink:href="#c1zMVAG8Jw" opacity="1" fill="#000000" fill-opacity="0"></use><g><use xlink:href="#c1zMVAG8Jw" opacity="1" fill-opacity="0" stroke="#45c2e7" stroke-width="1" stroke-opacity="1"></use></g></g><g><use xlink:href="#blwiAFivb" opacity="1" fill="#000000" fill-opacity="0"></use><g><use xlink:href="#blwiAFivb" opacity="1" fill-opacity="0" stroke="#42c3ea" stroke-width="1" stroke-opacity="1"></use></g></g><g><use xlink:href="#bh8jiYab7" opacity="1" fill="#000000" fill-opacity="0"></use><g><use xlink:href="#bh8jiYab7" opacity="1" fill-opacity="0" stroke="#3fc5ec" stroke-width="1" stroke-opacity="1"></use></g></g><g><use xlink:href="#a19mtekYrZ" opacity="1" fill="#000000" fill-opacity="0"></use><g><use xlink:href="#a19mtekYrZ" opacity="1" fill-opacity="0" stroke="#3cc6ef" stroke-width="1" stroke-opacity="1"></use></g></g><g><use xlink:href="#f2aghS1nb6" opacity="1" fill="#000000" fill-opacity="0"></use><g><use xlink:href="#f2aghS1nb6" opacity="1" fill-opacity="0" stroke="#38c8f2" stroke-width="1" stroke-opacity="1"></use></g></g><g><use xlink:href="#btgGZFNtD" opacity="1" fill="#000000" fill-opacity="0"></use><g><use xlink:href="#btgGZFNtD" opacity="1" fill-opacity="0" stroke="#35caf5" stroke-width="1" stroke-opacity="1"></use></g></g><g><use xlink:href="#bgqDlVaPu" opacity="1" fill="#000000" fill-opacity="0"></use><g><use xlink:href="#bgqDlVaPu" opacity="1" fill-opacity="0" stroke="#32cbf8" stroke-width="1" stroke-opacity="1"></use></g></g><g><use xlink:href="#a28BZ7gC1y" opacity="1" fill="#000000" fill-opacity="0"></use><g><use xlink:href="#a28BZ7gC1y" opacity="1" fill-opacity="0" stroke="#2fcdfb" stroke-width="1" stroke-opacity="1"></use></g></g><g><use xlink:href="#a2HFDKc7gr" opacity="1" fill="#000000" fill-opacity="0"></use><g><use xlink:href="#a2HFDKc7gr" opacity="1" fill-opacity="0" stroke="#2cd0fb" stroke-width="1" stroke-opacity="1"></use></g></g><g><use xlink:href="#c1lZ7Hhr6Z" opacity="1" fill="#000000" fill-opacity="0"></use><g><use xlink:href="#c1lZ7Hhr6Z" opacity="1" fill-opacity="0" stroke="#29d4fb" stroke-width="1" stroke-opacity="1"></use></g></g><g><use xlink:href="#j3gxgwIPip" opacity="1" fill="#000000" fill-opacity="0"></use><g><use xlink:href="#j3gxgwIPip" opacity="1" fill-opacity="0" stroke="#27d7fb" stroke-width="1" stroke-opacity="1"></use></g></g><g><use xlink:href="#aEcPNr6JK" opacity="1" fill="#000000" fill-opacity="0"></use><g><use xlink:href="#aEcPNr6JK" opacity="1" fill-opacity="0" stroke="#24dbfb" stroke-width="1" stroke-opacity="1"></use></g></g><g><use xlink:href="#asmmnc8iy" opacity="1" fill="#000000" fill-opacity="0"></use><g><use xlink:href="#asmmnc8iy" opacity="1" fill-opacity="0" stroke="#21dffa" stroke-width="1" stroke-opacity="1"></use></g></g><g><use xlink:href="#bf7McghGX" opacity="1" fill="#000000" fill-opacity="0"></use><g><use xlink:href="#bf7McghGX" opacity="1" fill-opacity="0" stroke="#1fe2fa" stroke-width="1" stroke-opacity="1"></use></g></g><g><use xlink:href="#dLlm1XV3p" opacity="1" fill="#000000" fill-opacity="0"></use><g><use xlink:href="#dLlm1XV3p" opacity="1" fill-opacity="0" stroke="#1ce6fa" stroke-width="1" stroke-opacity="1"></use></g></g><g><use xlink:href="#b4ivmasfKF" opacity="1" fill="#000000" fill-opacity="0"></use><g><use xlink:href="#b4ivmasfKF" opacity="1" fill-opacity="0" stroke="#1ae9fa" stroke-width="1" stroke-opacity="1"></use></g></g><g><use xlink:href="#dpg8aKtYj" opacity="1" fill="#000000" fill-opacity="0"></use><g><use xlink:href="#dpg8aKtYj" opacity="1" fill-opacity="0" stroke="#17edf9" stroke-width="1" stroke-opacity="1"></use></g></g><g><use xlink:href="#b1tHoWXJD" opacity="1" fill="#000000" fill-opacity="0"></use><g><use xlink:href="#b1tHoWXJD" opacity="1" fill-opacity="0" stroke="#14f1f9" stroke-width="1" stroke-opacity="1"></use></g></g><g><use xlink:href="#cRhmUJjSE" opacity="1" fill="#000000" fill-opacity="0"></use><g><use xlink:href="#cRhmUJjSE" opacity="1" fill-opacity="0" stroke="#12f4f9" stroke-width="1" stroke-opacity="1"></use></g></g><g><use xlink:href="#ebtKLkOGs" opacity="1" fill="#000000" fill-opacity="0"></use><g><use xlink:href="#ebtKLkOGs" opacity="1" fill-opacity="0" stroke="#0ff8f9" stroke-width="1" stroke-opacity="1"></use></g></g><g><use xlink:href="#egHQlymXR" opacity="1" fill="#000000" fill-opacity="0"></use><g><use xlink:href="#egHQlymXR" opacity="1" fill-opacity="0" stroke="#0efbf9" stroke-width="1" stroke-opacity="1"></use></g></g><g><use xlink:href="#h1Z6jXexcx" opacity="1" fill="#000000" fill-opacity="0"></use><g><use xlink:href="#h1Z6jXexcx" opacity="1" fill-opacity="0" stroke="#0efbf9" stroke-width="1" stroke-opacity="1"></use></g></g><g><use xlink:href="#c2CLDXp35" opacity="1" fill="#000000" fill-opacity="0"></use><g><use xlink:href="#c2CLDXp35" opacity="1" fill-opacity="0" stroke="#0efbf9" stroke-width="1" stroke-opacity="1"></use></g></g><g><use xlink:href="#b2QWHQUlVR" opacity="1" fill="#000000" fill-opacity="0"></use><g><use xlink:href="#b2QWHQUlVR" opacity="1" fill-opacity="0" stroke="#0efbf9" stroke-width="1" stroke-opacity="1"></use></g></g><g><use xlink:href="#cnsHKstFn" opacity="1" fill="#000000" fill-opacity="0"></use><g><use xlink:href="#cnsHKstFn" opacity="1" fill-opacity="0" stroke="#0efbf9" stroke-width="1" stroke-opacity="1"></use></g></g><g><use xlink:href="#cwGwWJc6i" opacity="1" fill="#000000" fill-opacity="0"></use><g><use xlink:href="#cwGwWJc6i" opacity="1" fill-opacity="0" stroke="#0efbf9" stroke-width="1" stroke-opacity="1"></use></g></g><g><use xlink:href="#a4qOVViWJ" opacity="1" fill="#000000" fill-opacity="0"></use><g><use xlink:href="#a4qOVViWJ" opacity="1" fill-opacity="0" stroke="#0efbf9" stroke-width="1" stroke-opacity="1"></use></g></g><g><use xlink:href="#ce8L52lMt" opacity="1" fill="#000000" fill-opacity="0"></use><g><use xlink:href="#ce8L52lMt" opacity="1" fill-opacity="0" stroke="#0efbf9" stroke-width="1" stroke-opacity="1"></use></g></g><g><use xlink:href="#b5rqXlpFZY" opacity="1" fill="#000000" fill-opacity="0"></use><g><use xlink:href="#b5rqXlpFZY" opacity="1" fill-opacity="0" stroke="#0efbf9" stroke-width="1" stroke-opacity="1"></use></g></g><g><use xlink:href="#abGzTdLHf" opacity="1" fill="#000000" fill-opacity="0"></use><g><use xlink:href="#abGzTdLHf" opacity="1" fill-opacity="0" stroke="#0efbf9" stroke-width="1" stroke-opacity="1"></use></g></g><g><use xlink:href="#c1ABF9E4GP" opacity="1" fill="#000000" fill-opacity="0"></use><g><use xlink:href="#c1ABF9E4GP" opacity="1" fill-opacity="0" stroke="#0efbf9" stroke-width="1" stroke-opacity="1"></use></g></g><g><use xlink:href="#a1Q9cYvR8f" opacity="1" fill="#000000" fill-opacity="0"></use><g><use xlink:href="#a1Q9cYvR8f" opacity="1" fill-opacity="0" stroke="#0efbf9" stroke-width="1" stroke-opacity="1"></use></g></g></g></g></svg>