<?xml version="1.0" encoding="UTF-8" standalone="no"?>
<!DOCTYPE svg PUBLIC "-//W3C//DTD SVG 1.1//EN" "http://www.w3.org/Graphics/SVG/1.1/DTD/svg11.dtd">
<svg version="1.1" xmlns="http://www.w3.org/2000/svg" xmlns:xlink="http://www.w3.org/1999/xlink" preserveAspectRatio="xMidYMid meet" viewBox="0 0 640 640" width="640" height="640"><defs><path d="M150 134.04L0 134.04L0 284.04L150 284.04L150 134.04Z" id="a15TOEVOQR"></path><path d="M10.59 22.04L31.18 21.02L33.06 10L30.16 0.43L14.35 0L0 4.36L10.59 22.04Z" id="dF9dYcAQa"></path><path d="M42.17 22.04L62.76 21.02L64.64 10L61.73 0.43L45.93 0L31.57 4.36L42.17 22.04Z" id="bQrwMvPkl"></path><path d="M73.74 22.04L94.33 21.02L96.21 10L93.3 0.43L77.5 0L63.15 4.36L73.74 22.04Z" id="b1pAtbUGvw"></path><path d="M105.31 22.04L125.9 21.02L127.78 10L124.88 0.43L109.07 0L94.72 4.36L105.31 22.04Z" id="f8Y4g8TU"></path><path d="M149.57 23.24L148.54 2.65L137.52 0.77L127.95 3.67L127.53 19.48L131.89 33.83L149.57 23.24Z" id="a2uhkoixM3"></path><path d="M19.19 43.47L39.78 42.45L41.66 31.42L38.75 21.86L22.95 21.43L8.59 25.78L19.19 43.47Z" id="c1XHqPiyr3"></path><path d="M50.76 43.47L71.35 42.45L73.23 31.42L70.33 21.86L54.52 21.43L40.17 25.78L50.76 43.47Z" id="a3dLZA1Pgs"></path><path d="M82.33 43.47L102.92 42.45L104.8 31.42L101.9 21.86L86.09 21.43L71.74 25.78L82.33 43.47Z" id="a2LCWV94Px"></path><path d="M126.15 25.99L105.56 27.02L103.68 38.04L106.58 47.61L122.39 48.03L136.74 43.67L126.15 25.99Z" id="b3DRPiIuTH"></path><path d="M27.78 64.9L48.37 63.87L50.25 52.85L47.35 43.28L31.54 42.86L17.19 47.21L27.78 64.9Z" id="b4hPvQTNjH"></path><path d="M13.86 38.5L0.33 5.84L0 32.76L2.71 39.3L14.65 49.66L13.86 38.5Z" id="b1kzgPAmca"></path><path d="M89.4 43.47L54.05 43.47L78.8 54.08L85.87 54.08L100.01 47L89.4 43.47Z" id="c1e8LumyRJ"></path><path d="M136.53 48.03L101.17 48.03L125.92 58.64L132.99 58.64L147.14 51.57L136.53 48.03Z" id="e1717RMLk2"></path><path d="M90.82 60.44L126.18 60.43L101.43 49.83L94.35 49.83L80.21 56.91L90.82 60.44Z" id="b2jrSniyGN"></path><path d="M59.71 63.27L95.06 63.27L70.31 52.67L63.24 52.67L49.1 59.74L59.71 63.27Z" id="kROwSQres"></path><path d="M133.25 60.44L97.89 60.44L122.64 71.04L129.71 71.04L143.85 63.97L133.25 60.44Z" id="bWEnneuQp"></path><path d="M102.14 63.27L66.78 63.27L91.53 73.88L98.6 73.88L112.74 66.8L102.14 63.27Z" id="a1TN7uY2Qf"></path><path d="M25 61.8L0 36.8L10 61.8L15 66.8L30 71.8L25 61.8Z" id="bxAemEmXo"></path><path d="M67.26 64.69L31.9 64.69L56.65 75.3L63.72 75.3L77.86 68.22L67.26 64.69Z" id="a224QjdVmi"></path><path d="M107.09 79.53L142.44 79.53L117.69 68.92L110.62 68.92L96.48 76L107.09 79.53Z" id="b28tDJDdG"></path><path d="M150 23.12L135 38.13L140 48.13L150 48.12L150 23.12Z" id="a1uUOavmx"></path><path d="M0 51.98L0 73.19L10.61 76.73L17.68 69.66L0 51.98Z" id="b1vaniZSc9"></path><path d="M53 82.79L38 67.8L28 72.8L28 82.8L53 82.79Z" id="fmsKSGjlj"></path><path d="M92.86 83.22L77.86 68.22L67.86 73.23L67.86 83.23L92.86 83.22Z" id="b1Zo8GtIn9"></path><path d="M0 87.34L21.22 87.33L24.75 76.73L17.68 69.66L0 87.34Z" id="if0uVSV9R"></path><path d="M121.23 79.53L136.23 94.53L146.23 89.53L146.23 79.53L121.23 79.53Z" id="bb0xFx2R3"></path><path d="M92.09 79.53L107.09 94.53L117.09 89.53L117.09 79.53L92.09 79.53Z" id="a4TXUKeRKk"></path><path d="M42.4 93.4L63.61 93.4L67.15 82.79L60.07 75.72L42.4 93.4Z" id="b2TOJG4anO"></path><path d="M67.86 83.23L82.86 98.23L92.86 93.23L92.86 83.23L67.86 83.23Z" id="b1yCOlwd2"></path><path d="M44.22 98.33L29.22 83.33L19.22 88.33L19.22 98.33L44.22 98.33Z" id="c20ujMNlJ"></path><path d="M139.97 77.76L147.29 69.32L150 62.78L126.91 72.36L139.97 77.76Z" id="a1YETlWlee"></path><path d="M125.09 85.53L115.09 90.53L110.09 95.53L135.09 95.53L125.09 85.53Z" id="a2IHOX6AuA"></path><path d="M100.86 89.22L90.86 94.23L85.87 99.23L110.87 99.22L100.86 89.22Z" id="a2VAwhWCcH"></path><path d="M71.61 89.4L61.61 94.4L56.61 99.4L81.61 99.4L71.61 89.4Z" id="bRCE44di0"></path><path d="M5.41 103.44L16.56 102.65L23.1 99.94L0 90.38L5.41 103.44Z" id="c2m365YvA6"></path><path d="M139.09 93.53L129.09 98.53L124.09 103.53L149.09 103.53L139.09 93.53Z" id="a4dXcxRlg0"></path><path d="M50.22 95.33L40.22 100.33L35.22 105.33L60.22 105.33L50.22 95.33Z" id="bNybkRQOT"></path><path d="M110.87 109.22L120.87 104.22L125.87 99.22L100.87 99.22L110.87 109.22Z" id="cc70gKrVX"></path><path d="M81.61 109.4L91.61 104.4L96.61 99.4L71.61 99.4L81.61 109.4Z" id="atxUgKfoc"></path><path d="M25.1 98.94L15.1 103.94L10.1 108.95L35.1 108.94L25.1 98.94Z" id="c7a7SQxQ9"></path></defs><g><g><g><use xlink:href="#a15TOEVOQR" opacity="1" fill="#000000" fill-opacity="1"></use><g><use xlink:href="#a15TOEVOQR" opacity="1" fill-opacity="0" stroke="#000000" stroke-width="1" stroke-opacity="0"></use></g></g><g><use xlink:href="#dF9dYcAQa" opacity="1" fill="#000000" fill-opacity="0"></use><g><use xlink:href="#dF9dYcAQa" opacity="1" fill-opacity="0" stroke="#872a35" stroke-width="1" stroke-opacity="1"></use></g></g><g><use xlink:href="#bQrwMvPkl" opacity="1" fill="#000000" fill-opacity="0"></use><g><use xlink:href="#bQrwMvPkl" opacity="1" fill-opacity="0" stroke="#9b3629" stroke-width="1" stroke-opacity="1"></use></g></g><g><use xlink:href="#b1pAtbUGvw" opacity="1" fill="#000000" fill-opacity="0"></use><g><use xlink:href="#b1pAtbUGvw" opacity="1" fill-opacity="0" stroke="#af431e" stroke-width="1" stroke-opacity="1"></use></g></g><g><use xlink:href="#f8Y4g8TU" opacity="1" fill="#000000" fill-opacity="0"></use><g><use xlink:href="#f8Y4g8TU" opacity="1" fill-opacity="0" stroke="#c35013" stroke-width="1" stroke-opacity="1"></use></g></g><g><use xlink:href="#a2uhkoixM3" opacity="1" fill="#000000" fill-opacity="0"></use><g><use xlink:href="#a2uhkoixM3" opacity="1" fill-opacity="0" stroke="#d85d07" stroke-width="1" stroke-opacity="1"></use></g></g><g><use xlink:href="#c1XHqPiyr3" opacity="1" fill="#000000" fill-opacity="0"></use><g><use xlink:href="#c1XHqPiyr3" opacity="1" fill-opacity="0" stroke="#df6705" stroke-width="1" stroke-opacity="1"></use></g></g><g><use xlink:href="#a3dLZA1Pgs" opacity="1" fill="#000000" fill-opacity="0"></use><g><use xlink:href="#a3dLZA1Pgs" opacity="1" fill-opacity="0" stroke="#dc6e08" stroke-width="1" stroke-opacity="1"></use></g></g><g><use xlink:href="#a2LCWV94Px" opacity="1" fill="#000000" fill-opacity="0"></use><g><use xlink:href="#a2LCWV94Px" opacity="1" fill-opacity="0" stroke="#d9760c" stroke-width="1" stroke-opacity="1"></use></g></g><g><use xlink:href="#b3DRPiIuTH" opacity="1" fill="#000000" fill-opacity="0"></use><g><use xlink:href="#b3DRPiIuTH" opacity="1" fill-opacity="0" stroke="#d67e10" stroke-width="1" stroke-opacity="1"></use></g></g><g><use xlink:href="#b4hPvQTNjH" opacity="1" fill="#000000" fill-opacity="0"></use><g><use xlink:href="#b4hPvQTNjH" opacity="1" fill-opacity="0" stroke="#d38513" stroke-width="1" stroke-opacity="1"></use></g></g><g><use xlink:href="#b1kzgPAmca" opacity="1" fill="#000000" fill-opacity="0"></use><g><use xlink:href="#b1kzgPAmca" opacity="1" fill-opacity="0" stroke="#d08d10" stroke-width="1" stroke-opacity="1"></use></g></g><g><use xlink:href="#c1e8LumyRJ" opacity="1" fill="#000000" fill-opacity="0"></use><g><use xlink:href="#c1e8LumyRJ" opacity="1" fill-opacity="0" stroke="#cd950d" stroke-width="1" stroke-opacity="1"></use></g></g><g><use xlink:href="#e1717RMLk2" opacity="1" fill="#000000" fill-opacity="0"></use><g><use xlink:href="#e1717RMLk2" opacity="1" fill-opacity="0" stroke="#ca9c0a" stroke-width="1" stroke-opacity="1"></use></g></g><g><use xlink:href="#b2jrSniyGN" opacity="1" fill="#000000" fill-opacity="0"></use><g><use xlink:href="#b2jrSniyGN" opacity="1" fill-opacity="0" stroke="#c7a407" stroke-width="1" stroke-opacity="1"></use></g></g><g><use xlink:href="#kROwSQres" opacity="1" fill="#000000" fill-opacity="0"></use><g><use xlink:href="#kROwSQres" opacity="1" fill-opacity="0" stroke="#c0a90d" stroke-width="1" stroke-opacity="1"></use></g></g><g><use xlink:href="#bWEnneuQp" opacity="1" fill="#000000" fill-opacity="0"></use><g><use xlink:href="#bWEnneuQp" opacity="1" fill-opacity="0" stroke="#b7ad18" stroke-width="1" stroke-opacity="1"></use></g></g><g><use xlink:href="#a1TN7uY2Qf" opacity="1" fill="#000000" fill-opacity="0"></use><g><use xlink:href="#a1TN7uY2Qf" opacity="1" fill-opacity="0" stroke="#aeb124" stroke-width="1" stroke-opacity="1"></use></g></g><g><use xlink:href="#bxAemEmXo" opacity="1" fill="#000000" fill-opacity="0"></use><g><use xlink:href="#bxAemEmXo" opacity="1" fill-opacity="0" stroke="#a5b52f" stroke-width="1" stroke-opacity="1"></use></g></g><g><use xlink:href="#a224QjdVmi" opacity="1" fill="#000000" fill-opacity="0"></use><g><use xlink:href="#a224QjdVmi" opacity="1" fill-opacity="0" stroke="#9bb93c" stroke-width="1" stroke-opacity="1"></use></g></g><g><use xlink:href="#b28tDJDdG" opacity="1" fill="#000000" fill-opacity="0"></use><g><use xlink:href="#b28tDJDdG" opacity="1" fill-opacity="0" stroke="#92ba50" stroke-width="1" stroke-opacity="1"></use></g></g><g><use xlink:href="#a1uUOavmx" opacity="1" fill="#000000" fill-opacity="0"></use><g><use xlink:href="#a1uUOavmx" opacity="1" fill-opacity="0" stroke="#88bc65" stroke-width="1" stroke-opacity="1"></use></g></g><g><use xlink:href="#b1vaniZSc9" opacity="1" fill="#000000" fill-opacity="0"></use><g><use xlink:href="#b1vaniZSc9" opacity="1" fill-opacity="0" stroke="#7ebd79" stroke-width="1" stroke-opacity="1"></use></g></g><g><use xlink:href="#fmsKSGjlj" opacity="1" fill="#000000" fill-opacity="0"></use><g><use xlink:href="#fmsKSGjlj" opacity="1" fill-opacity="0" stroke="#75be8d" stroke-width="1" stroke-opacity="1"></use></g></g><g><use xlink:href="#b1Zo8GtIn9" opacity="1" fill="#000000" fill-opacity="0"></use><g><use xlink:href="#b1Zo8GtIn9" opacity="1" fill-opacity="0" stroke="#6dbe9e" stroke-width="1" stroke-opacity="1"></use></g></g><g><use xlink:href="#if0uVSV9R" opacity="1" fill="#000000" fill-opacity="0"></use><g><use xlink:href="#if0uVSV9R" opacity="1" fill-opacity="0" stroke="#67bdae" stroke-width="1" stroke-opacity="1"></use></g></g><g><use xlink:href="#bb0xFx2R3" opacity="1" fill="#000000" fill-opacity="0"></use><g><use xlink:href="#bb0xFx2R3" opacity="1" fill-opacity="0" stroke="#60bbbe" stroke-width="1" stroke-opacity="1"></use></g></g><g><use xlink:href="#a4TXUKeRKk" opacity="1" fill="#000000" fill-opacity="0"></use><g><use xlink:href="#a4TXUKeRKk" opacity="1" fill-opacity="0" stroke="#5abace" stroke-width="1" stroke-opacity="1"></use></g></g><g><use xlink:href="#b2TOJG4anO" opacity="1" fill="#000000" fill-opacity="0"></use><g><use xlink:href="#b2TOJG4anO" opacity="1" fill-opacity="0" stroke="#53bbdb" stroke-width="1" stroke-opacity="1"></use></g></g><g><use xlink:href="#b1yCOlwd2" opacity="1" fill="#000000" fill-opacity="0"></use><g><use xlink:href="#b1yCOlwd2" opacity="1" fill-opacity="0" stroke="#4ac0e3" stroke-width="1" stroke-opacity="1"></use></g></g><g><use xlink:href="#c20ujMNlJ" opacity="1" fill="#000000" fill-opacity="0"></use><g><use xlink:href="#c20ujMNlJ" opacity="1" fill-opacity="0" stroke="#41c4eb" stroke-width="1" stroke-opacity="1"></use></g></g><g><use xlink:href="#a1YETlWlee" opacity="1" fill="#000000" fill-opacity="0"></use><g><use xlink:href="#a1YETlWlee" opacity="1" fill-opacity="0" stroke="#38c9f3" stroke-width="1" stroke-opacity="1"></use></g></g><g><use xlink:href="#a2IHOX6AuA" opacity="1" fill="#000000" fill-opacity="0"></use><g><use xlink:href="#a2IHOX6AuA" opacity="1" fill-opacity="0" stroke="#2ecdfb" stroke-width="1" stroke-opacity="1"></use></g></g><g><use xlink:href="#a2VAwhWCcH" opacity="1" fill="#000000" fill-opacity="0"></use><g><use xlink:href="#a2VAwhWCcH" opacity="1" fill-opacity="0" stroke="#27d7fb" stroke-width="1" stroke-opacity="1"></use></g></g><g><use xlink:href="#bRCE44di0" opacity="1" fill="#000000" fill-opacity="0"></use><g><use xlink:href="#bRCE44di0" opacity="1" fill-opacity="0" stroke="#20e1fa" stroke-width="1" stroke-opacity="1"></use></g></g><g><use xlink:href="#c2m365YvA6" opacity="1" fill="#000000" fill-opacity="0"></use><g><use xlink:href="#c2m365YvA6" opacity="1" fill-opacity="0" stroke="#19ebfa" stroke-width="1" stroke-opacity="1"></use></g></g><g><use xlink:href="#a4dXcxRlg0" opacity="1" fill="#000000" fill-opacity="0"></use><g><use xlink:href="#a4dXcxRlg0" opacity="1" fill-opacity="0" stroke="#12f5f9" stroke-width="1" stroke-opacity="1"></use></g></g><g><use xlink:href="#bNybkRQOT" opacity="1" fill="#000000" fill-opacity="0"></use><g><use xlink:href="#bNybkRQOT" opacity="1" fill-opacity="0" stroke="#0efbf9" stroke-width="1" stroke-opacity="1"></use></g></g><g><use xlink:href="#cc70gKrVX" opacity="1" fill="#000000" fill-opacity="0"></use><g><use xlink:href="#cc70gKrVX" opacity="1" fill-opacity="0" stroke="#0efbf9" stroke-width="1" stroke-opacity="1"></use></g></g><g><use xlink:href="#atxUgKfoc" opacity="1" fill="#000000" fill-opacity="0"></use><g><use xlink:href="#atxUgKfoc" opacity="1" fill-opacity="0" stroke="#0efbf9" stroke-width="1" stroke-opacity="1"></use></g></g><g><use xlink:href="#c7a7SQxQ9" opacity="1" fill="#000000" fill-opacity="0"></use><g><use xlink:href="#c7a7SQxQ9" opacity="1" fill-opacity="0" stroke="#0efbf9" stroke-width="1" stroke-opacity="1"></use></g></g></g></g></svg>