<?xml version="1.0" encoding="UTF-8" standalone="no"?>
<!DOCTYPE svg PUBLIC "-//W3C//DTD SVG 1.1//EN" "http://www.w3.org/Graphics/SVG/1.1/DTD/svg11.dtd">
<svg version="1.1" xmlns="http://www.w3.org/2000/svg" xmlns:xlink="http://www.w3.org/1999/xlink" preserveAspectRatio="xMidYMid meet" viewBox="0 0 640 640" width="640" height="640"><defs><path d="M-0.07 160.47L-0.07 310.47L149.93 310.47L149.93 160.47L-0.07 160.47Z" id="b4BXNtNBV4"></path><path d="M14.14 14.15L14.14 0L0 0L0 14.15L14.14 14.15Z" id="bkH0g9Sm"></path><path d="M0 28.29L14.14 28.29L14.14 14.15L0 14.15L0 28.29Z" id="hyb1P8AQi"></path><path d="M0 42.43L14.14 42.43L14.14 28.29L0 28.29L0 42.43Z" id="dhnAJREuZ"></path><path d="M0 56.57L14.14 56.57L14.14 42.43L0 42.43L0 56.57Z" id="aTdsSOkcu"></path><path d="M0 70.71L14.14 70.71L14.14 56.57L0 56.57L0 70.71Z" id="d3YDOHNLqd"></path><path d="M14.14 84.85L14.14 70.71L0 70.71L0 84.85L14.14 84.85Z" id="a2STCXUMKg"></path><path d="M0 84.85L0 98.99L14.14 98.99L14.14 84.85L0 84.85Z" id="dylt5Weu3"></path><path d="M0 113.13L14.14 113.13L14.14 98.99L0 98.99L0 113.13Z" id="cjzsixwe9"></path><path d="M14.14 113.13L0 113.13L0 127.27L14.14 127.27L14.14 113.13Z" id="iJwIC8U0q"></path><path d="M14.14 127.27L0 127.27L0 141.41L14.14 141.41L14.14 127.27Z" id="bDUq3nLNP"></path><path d="M28.28 0L14.14 0L14.14 14.14L28.28 14.14L28.28 0Z" id="d14ejHBq0y"></path><path d="M28.28 28.28L28.28 14.14L14.14 14.14L14.14 28.28L28.28 28.28Z" id="avn53TpT8"></path><path d="M28.28 42.42L28.28 28.28L14.14 28.28L14.14 42.42L28.28 42.42Z" id="a2uzRtPHdp"></path><path d="M14.14 42.42L14.14 56.56L28.28 56.56L28.28 42.42L14.14 42.42Z" id="goQnA5bMn"></path><path d="M14.14 70.7L28.28 70.7L28.28 56.56L14.14 56.56L14.14 70.7Z" id="ag13UZp6t"></path><path d="M14.14 70.7L14.14 84.84L28.28 84.84L28.28 70.7L14.14 70.7Z" id="b4WihKOYCk"></path><path d="M14.14 98.98L28.28 98.98L28.28 84.84L14.14 84.84L14.14 98.98Z" id="bMN35Pch"></path><path d="M14.14 113.12L28.28 113.12L28.28 98.98L14.14 98.98L14.14 113.12Z" id="fCxUTGAkk"></path><path d="M14.14 113.12L14.14 127.26L28.28 127.26L28.28 113.12L14.14 113.12Z" id="g2WoNOrROk"></path><path d="M28.28 141.4L28.28 127.26L14.14 127.26L14.14 141.4L28.28 141.4Z" id="a3XbLGTGa"></path><path d="M46.29 10.39L28.28 0L28.29 20.79L46.29 10.39Z" id="a36zzorFUf"></path><path d="M38.68 123.4L28.28 141.4L49.07 141.4L38.68 123.4Z" id="e9u8hNAVxY"></path><path d="M28.28 117.4L46.28 127.79L46.28 107L28.28 117.4Z" id="c5hnfAJ5Ph"></path><path d="M38.67 89L28.28 107L49.07 107L38.67 89Z" id="i7nFY4v6P"></path><path d="M16.52 97.98L36.6 92.6L21.9 77.91L16.52 97.98Z" id="a1QkgnWQyR"></path><path d="M28.28 83L46.28 93.39L46.28 72.6L28.28 83Z" id="bbquB2uSUP"></path><path d="M28.28 62.21L46.28 72.6L46.28 51.81L28.28 62.21Z" id="b3b3tfT5Kk"></path><path d="M13.88 74.68L31.88 85.07L31.88 64.28L13.88 74.68Z" id="g24vMHLOg"></path><path d="M38.67 33.81L28.28 51.82L49.06 51.81L38.67 33.81Z" id="b1eirscMIx"></path><path d="M57.44 24.75L39.43 14.36L39.44 35.14L57.44 24.75Z" id="j3WHixkaK0"></path><path d="M49.83 53.14L60.22 35.13L39.44 35.14L49.83 53.14Z" id="a27aFeITIq"></path><path d="M54.14 79.77L43.75 97.78L64.53 97.77L54.14 79.77Z" id="b562F3ETX"></path><path d="M64.28 126.18L46.28 115.79L46.29 136.58L64.28 126.18Z" id="cdMJ695jy"></path><path d="M50.69 18L61.08 0L40.29 0.01L50.69 18Z" id="gpscmuK3R"></path><path d="M54.15 115.77L64.54 97.77L43.75 97.78L54.15 115.77Z" id="h1s3e6p8iZ"></path><path d="M56.67 61.78L46.28 79.78L67.07 79.77L56.67 61.78Z" id="a5gSIiu7g"></path><path d="M49.91 52.98L62.57 69.46L70.52 50.26L49.91 52.98Z" id="f48Z59nHg"></path><path d="M68.95 25.19L63.57 5.11L48.88 19.81L68.95 25.19Z" id="a2YxWqocsy"></path><path d="M50.19 118.05L68.19 128.44L68.19 107.66L50.19 118.05Z" id="a1HH4Dco5m"></path><path d="M46.29 136.58L64.29 146.97L64.29 126.19L46.29 136.58Z" id="g2gEzwORjJ"></path><path d="M61.87 32.26L51.48 50.26L72.26 50.26L61.87 32.26Z" id="d4eyFQRXI0"></path><path d="M64.54 97.77L74.93 79.77L54.15 79.77L64.54 97.77Z" id="hwxD7Reuv"></path><path d="M82.29 136.58L64.29 126.19L64.29 146.97L82.29 136.58Z" id="aaXAeuQyM"></path><path d="M69.22 89.66L58.83 107.66L79.61 107.66L69.22 89.66Z" id="bX0RJpQC"></path><path d="M84.98 69.22L66.98 58.83L66.98 79.61L84.98 69.22Z" id="fuCxRmKna"></path><path d="M59.29 30.77L77.29 41.16L77.29 20.38L59.29 30.77Z" id="a6PH64zU9"></path><path d="M85.76 10.38L67.76 0L67.77 20.78L85.76 10.38Z" id="i1RApf8HdG"></path><path d="M77.4 59.15L87.79 41.15L67.01 41.16L77.4 59.15Z" id="acMQEm3MK"></path><path d="M86.19 118.06L68.19 107.67L68.2 128.45L86.19 118.06Z" id="d56hKEO5o"></path><path d="M79.89 72.15L69.5 90.15L90.28 90.14L79.89 72.15Z" id="e2s0VMeA0y"></path><path d="M0.71 141.41L0 143.54L1.42 144.95L4.95 141.41L0.71 141.41Z" id="a1aJ1Bohts"></path><path d="M3.42 143.95L1.42 144.95L1.42 146.95L6.42 146.95L3.42 143.95Z" id="g5ycxZwV1"></path><path d="M5.92 146.45L7.92 145.45L7.92 143.45L2.92 143.45L5.92 146.45Z" id="jBpo5bazw"></path><path d="M9.92 141.41L7.92 142.41L7.92 144.41L12.92 144.41L9.92 141.41Z" id="d12QRV2er9"></path><path d="M12.91 144.4L13.91 146.4L15.91 146.4L15.91 141.4L12.91 144.4Z" id="a1pqYwUWFe"></path><path d="M17.91 141.4L15.91 142.4L15.91 144.4L20.91 144.4L17.91 141.4Z" id="a2iYlwPAh8"></path><path d="M22.91 143.4L20.91 144.4L20.91 146.4L25.91 146.4L22.91 143.4Z" id="hw1xkNAe"></path><path d="M28.91 143.4L27.91 141.4L25.91 141.4L25.91 146.4L28.91 143.4Z" id="d1YRyfQq0S"></path><path d="M30.28 129.75L28.28 130.75L28.28 132.75L33.28 132.75L30.28 129.75Z" id="f59T9qrxLG"></path><path d="M31.62 144.93L32.33 142.81L30.91 141.4L27.38 144.93L31.62 144.93Z" id="b1yuwPnRn"></path></defs><g><g><g><use xlink:href="#b4BXNtNBV4" opacity="1" fill="#000000" fill-opacity="1"></use><g><use xlink:href="#b4BXNtNBV4" opacity="1" fill-opacity="0" stroke="#000000" stroke-width="1" stroke-opacity="0"></use></g></g><g><use xlink:href="#bkH0g9Sm" opacity="1" fill="#000000" fill-opacity="1"></use><g><use xlink:href="#bkH0g9Sm" opacity="1" fill-opacity="0" stroke="#000000" stroke-width="1" stroke-opacity="0"></use></g></g><g><use xlink:href="#hyb1P8AQi" opacity="1" fill="#000000" fill-opacity="1"></use><g><use xlink:href="#hyb1P8AQi" opacity="1" fill-opacity="0" stroke="#000000" stroke-width="1" stroke-opacity="0"></use></g></g><g><use xlink:href="#dhnAJREuZ" opacity="1" fill="#000000" fill-opacity="1"></use><g><use xlink:href="#dhnAJREuZ" opacity="1" fill-opacity="0" stroke="#000000" stroke-width="1" stroke-opacity="0"></use></g></g><g><use xlink:href="#aTdsSOkcu" opacity="1" fill="#000000" fill-opacity="1"></use><g><use xlink:href="#aTdsSOkcu" opacity="1" fill-opacity="0" stroke="#000000" stroke-width="1" stroke-opacity="0"></use></g></g><g><use xlink:href="#d3YDOHNLqd" opacity="1" fill="#000000" fill-opacity="1"></use><g><use xlink:href="#d3YDOHNLqd" opacity="1" fill-opacity="0" stroke="#000000" stroke-width="1" stroke-opacity="0"></use></g></g><g><use xlink:href="#a2STCXUMKg" opacity="1" fill="#000000" fill-opacity="1"></use><g><use xlink:href="#a2STCXUMKg" opacity="1" fill-opacity="0" stroke="#000000" stroke-width="1" stroke-opacity="0"></use></g></g><g><use xlink:href="#dylt5Weu3" opacity="1" fill="#000000" fill-opacity="1"></use><g><use xlink:href="#dylt5Weu3" opacity="1" fill-opacity="0" stroke="#000000" stroke-width="1" stroke-opacity="0"></use></g></g><g><use xlink:href="#cjzsixwe9" opacity="1" fill="#000000" fill-opacity="1"></use><g><use xlink:href="#cjzsixwe9" opacity="1" fill-opacity="0" stroke="#000000" stroke-width="1" stroke-opacity="0"></use></g></g><g><use xlink:href="#iJwIC8U0q" opacity="1" fill="#000000" fill-opacity="1"></use><g><use xlink:href="#iJwIC8U0q" opacity="1" fill-opacity="0" stroke="#000000" stroke-width="1" stroke-opacity="0"></use></g></g><g><use xlink:href="#bDUq3nLNP" opacity="1" fill="#000000" fill-opacity="1"></use><g><use xlink:href="#bDUq3nLNP" opacity="1" fill-opacity="0" stroke="#000000" stroke-width="1" stroke-opacity="0"></use></g></g><g><use xlink:href="#d14ejHBq0y" opacity="1" fill="#000000" fill-opacity="1"></use><g><use xlink:href="#d14ejHBq0y" opacity="1" fill-opacity="0" stroke="#000000" stroke-width="1" stroke-opacity="0"></use></g></g><g><use xlink:href="#avn53TpT8" opacity="1" fill="#000000" fill-opacity="1"></use><g><use xlink:href="#avn53TpT8" opacity="1" fill-opacity="0" stroke="#000000" stroke-width="1" stroke-opacity="0"></use></g></g><g><use xlink:href="#a2uzRtPHdp" opacity="1" fill="#000000" fill-opacity="1"></use><g><use xlink:href="#a2uzRtPHdp" opacity="1" fill-opacity="0" stroke="#000000" stroke-width="1" stroke-opacity="0"></use></g></g><g><use xlink:href="#goQnA5bMn" opacity="1" fill="#000000" fill-opacity="1"></use><g><use xlink:href="#goQnA5bMn" opacity="1" fill-opacity="0" stroke="#000000" stroke-width="1" stroke-opacity="0"></use></g></g><g><use xlink:href="#ag13UZp6t" opacity="1" fill="#000000" fill-opacity="1"></use><g><use xlink:href="#ag13UZp6t" opacity="1" fill-opacity="0" stroke="#000000" stroke-width="1" stroke-opacity="0"></use></g></g><g><use xlink:href="#b4WihKOYCk" opacity="1" fill="#000000" fill-opacity="1"></use><g><use xlink:href="#b4WihKOYCk" opacity="1" fill-opacity="0" stroke="#000000" stroke-width="1" stroke-opacity="0"></use></g></g><g><use xlink:href="#bMN35Pch" opacity="1" fill="#000000" fill-opacity="1"></use><g><use xlink:href="#bMN35Pch" opacity="1" fill-opacity="0" stroke="#000000" stroke-width="1" stroke-opacity="0"></use></g></g><g><use xlink:href="#fCxUTGAkk" opacity="1" fill="#000000" fill-opacity="1"></use><g><use xlink:href="#fCxUTGAkk" opacity="1" fill-opacity="0" stroke="#000000" stroke-width="1" stroke-opacity="0"></use></g></g><g><use xlink:href="#g2WoNOrROk" opacity="1" fill="#000000" fill-opacity="1"></use><g><use xlink:href="#g2WoNOrROk" opacity="1" fill-opacity="0" stroke="#000000" stroke-width="1" stroke-opacity="0"></use></g></g><g><use xlink:href="#a3XbLGTGa" opacity="1" fill="#000000" fill-opacity="1"></use><g><use xlink:href="#a3XbLGTGa" opacity="1" fill-opacity="0" stroke="#000000" stroke-width="1" stroke-opacity="0"></use></g></g><g><use xlink:href="#a36zzorFUf" opacity="1" fill="#000000" fill-opacity="1"></use><g><use xlink:href="#a36zzorFUf" opacity="1" fill-opacity="0" stroke="#000000" stroke-width="1" stroke-opacity="0"></use></g></g><g><use xlink:href="#e9u8hNAVxY" opacity="1" fill="#000000" fill-opacity="1"></use><g><use xlink:href="#e9u8hNAVxY" opacity="1" fill-opacity="0" stroke="#000000" stroke-width="1" stroke-opacity="0"></use></g></g><g><use xlink:href="#c5hnfAJ5Ph" opacity="1" fill="#000000" fill-opacity="1"></use><g><use xlink:href="#c5hnfAJ5Ph" opacity="1" fill-opacity="0" stroke="#000000" stroke-width="1" stroke-opacity="0"></use></g></g><g><use xlink:href="#i7nFY4v6P" opacity="1" fill="#000000" fill-opacity="1"></use><g><use xlink:href="#i7nFY4v6P" opacity="1" fill-opacity="0" stroke="#000000" stroke-width="1" stroke-opacity="0"></use></g></g><g><use xlink:href="#a1QkgnWQyR" opacity="1" fill="#000000" fill-opacity="1"></use><g><use xlink:href="#a1QkgnWQyR" opacity="1" fill-opacity="0" stroke="#000000" stroke-width="1" stroke-opacity="0"></use></g></g><g><use xlink:href="#bbquB2uSUP" opacity="1" fill="#000000" fill-opacity="1"></use><g><use xlink:href="#bbquB2uSUP" opacity="1" fill-opacity="0" stroke="#000000" stroke-width="1" stroke-opacity="0"></use></g></g><g><use xlink:href="#b3b3tfT5Kk" opacity="1" fill="#000000" fill-opacity="1"></use><g><use xlink:href="#b3b3tfT5Kk" opacity="1" fill-opacity="0" stroke="#000000" stroke-width="1" stroke-opacity="0"></use></g></g><g><use xlink:href="#g24vMHLOg" opacity="1" fill="#000000" fill-opacity="1"></use><g><use xlink:href="#g24vMHLOg" opacity="1" fill-opacity="0" stroke="#000000" stroke-width="1" stroke-opacity="0"></use></g></g><g><use xlink:href="#b1eirscMIx" opacity="1" fill="#000000" fill-opacity="1"></use><g><use xlink:href="#b1eirscMIx" opacity="1" fill-opacity="0" stroke="#000000" stroke-width="1" stroke-opacity="0"></use></g></g><g><use xlink:href="#j3WHixkaK0" opacity="1" fill="#000000" fill-opacity="1"></use><g><use xlink:href="#j3WHixkaK0" opacity="1" fill-opacity="0" stroke="#000000" stroke-width="1" stroke-opacity="0"></use></g></g><g><use xlink:href="#a27aFeITIq" opacity="1" fill="#000000" fill-opacity="1"></use><g><use xlink:href="#a27aFeITIq" opacity="1" fill-opacity="0" stroke="#000000" stroke-width="1" stroke-opacity="0"></use></g></g><g><use xlink:href="#b562F3ETX" opacity="1" fill="#000000" fill-opacity="1"></use><g><use xlink:href="#b562F3ETX" opacity="1" fill-opacity="0" stroke="#000000" stroke-width="1" stroke-opacity="0"></use></g></g><g><use xlink:href="#cdMJ695jy" opacity="1" fill="#000000" fill-opacity="1"></use><g><use xlink:href="#cdMJ695jy" opacity="1" fill-opacity="0" stroke="#000000" stroke-width="1" stroke-opacity="0"></use></g></g><g><use xlink:href="#gpscmuK3R" opacity="1" fill="#000000" fill-opacity="1"></use><g><use xlink:href="#gpscmuK3R" opacity="1" fill-opacity="0" stroke="#000000" stroke-width="1" stroke-opacity="0"></use></g></g><g><use xlink:href="#h1s3e6p8iZ" opacity="1" fill="#000000" fill-opacity="1"></use><g><use xlink:href="#h1s3e6p8iZ" opacity="1" fill-opacity="0" stroke="#000000" stroke-width="1" stroke-opacity="0"></use></g></g><g><use xlink:href="#a5gSIiu7g" opacity="1" fill="#000000" fill-opacity="1"></use><g><use xlink:href="#a5gSIiu7g" opacity="1" fill-opacity="0" stroke="#000000" stroke-width="1" stroke-opacity="0"></use></g></g><g><use xlink:href="#f48Z59nHg" opacity="1" fill="#000000" fill-opacity="1"></use><g><use xlink:href="#f48Z59nHg" opacity="1" fill-opacity="0" stroke="#000000" stroke-width="1" stroke-opacity="0"></use></g></g><g><use xlink:href="#a2YxWqocsy" opacity="1" fill="#000000" fill-opacity="1"></use><g><use xlink:href="#a2YxWqocsy" opacity="1" fill-opacity="0" stroke="#000000" stroke-width="1" stroke-opacity="0"></use></g></g><g><use xlink:href="#a1HH4Dco5m" opacity="1" fill="#000000" fill-opacity="1"></use><g><use xlink:href="#a1HH4Dco5m" opacity="1" fill-opacity="0" stroke="#000000" stroke-width="1" stroke-opacity="0"></use></g></g><g><use xlink:href="#g2gEzwORjJ" opacity="1" fill="#000000" fill-opacity="1"></use><g><use xlink:href="#g2gEzwORjJ" opacity="1" fill-opacity="0" stroke="#000000" stroke-width="1" stroke-opacity="0"></use></g></g><g><use xlink:href="#d4eyFQRXI0" opacity="1" fill="#000000" fill-opacity="1"></use><g><use xlink:href="#d4eyFQRXI0" opacity="1" fill-opacity="0" stroke="#000000" stroke-width="1" stroke-opacity="0"></use></g></g><g><use xlink:href="#hwxD7Reuv" opacity="1" fill="#000000" fill-opacity="1"></use><g><use xlink:href="#hwxD7Reuv" opacity="1" fill-opacity="0" stroke="#000000" stroke-width="1" stroke-opacity="0"></use></g></g><g><use xlink:href="#aaXAeuQyM" opacity="1" fill="#000000" fill-opacity="1"></use><g><use xlink:href="#aaXAeuQyM" opacity="1" fill-opacity="0" stroke="#000000" stroke-width="1" stroke-opacity="0"></use></g></g><g><use xlink:href="#bX0RJpQC" opacity="1" fill="#000000" fill-opacity="1"></use><g><use xlink:href="#bX0RJpQC" opacity="1" fill-opacity="0" stroke="#000000" stroke-width="1" stroke-opacity="0"></use></g></g><g><use xlink:href="#fuCxRmKna" opacity="1" fill="#000000" fill-opacity="1"></use><g><use xlink:href="#fuCxRmKna" opacity="1" fill-opacity="0" stroke="#000000" stroke-width="1" stroke-opacity="0"></use></g></g><g><use xlink:href="#a6PH64zU9" opacity="1" fill="#000000" fill-opacity="1"></use><g><use xlink:href="#a6PH64zU9" opacity="1" fill-opacity="0" stroke="#000000" stroke-width="1" stroke-opacity="0"></use></g></g><g><use xlink:href="#i1RApf8HdG" opacity="1" fill="#000000" fill-opacity="1"></use><g><use xlink:href="#i1RApf8HdG" opacity="1" fill-opacity="0" stroke="#000000" stroke-width="1" stroke-opacity="0"></use></g></g><g><use xlink:href="#acMQEm3MK" opacity="1" fill="#000000" fill-opacity="1"></use><g><use xlink:href="#acMQEm3MK" opacity="1" fill-opacity="0" stroke="#000000" stroke-width="1" stroke-opacity="0"></use></g></g><g><use xlink:href="#d56hKEO5o" opacity="1" fill="#000000" fill-opacity="1"></use><g><use xlink:href="#d56hKEO5o" opacity="1" fill-opacity="0" stroke="#000000" stroke-width="1" stroke-opacity="0"></use></g></g><g><use xlink:href="#e2s0VMeA0y" opacity="1" fill="#000000" fill-opacity="1"></use><g><use xlink:href="#e2s0VMeA0y" opacity="1" fill-opacity="0" stroke="#000000" stroke-width="1" stroke-opacity="0"></use></g></g><g><use xlink:href="#a1aJ1Bohts" opacity="1" fill="#000000" fill-opacity="1"></use><g><use xlink:href="#a1aJ1Bohts" opacity="1" fill-opacity="0" stroke="#000000" stroke-width="1" stroke-opacity="0"></use></g></g><g><use xlink:href="#g5ycxZwV1" opacity="1" fill="#000000" fill-opacity="1"></use><g><use xlink:href="#g5ycxZwV1" opacity="1" fill-opacity="0" stroke="#000000" stroke-width="1" stroke-opacity="0"></use></g></g><g><use xlink:href="#jBpo5bazw" opacity="1" fill="#000000" fill-opacity="1"></use><g><use xlink:href="#jBpo5bazw" opacity="1" fill-opacity="0" stroke="#000000" stroke-width="1" stroke-opacity="0"></use></g></g><g><use xlink:href="#d12QRV2er9" opacity="1" fill="#000000" fill-opacity="1"></use><g><use xlink:href="#d12QRV2er9" opacity="1" fill-opacity="0" stroke="#000000" stroke-width="1" stroke-opacity="0"></use></g></g><g><use xlink:href="#a1pqYwUWFe" opacity="1" fill="#000000" fill-opacity="1"></use><g><use xlink:href="#a1pqYwUWFe" opacity="1" fill-opacity="0" stroke="#000000" stroke-width="1" stroke-opacity="0"></use></g></g><g><use xlink:href="#a2iYlwPAh8" opacity="1" fill="#000000" fill-opacity="1"></use><g><use xlink:href="#a2iYlwPAh8" opacity="1" fill-opacity="0" stroke="#000000" stroke-width="1" stroke-opacity="0"></use></g></g><g><use xlink:href="#hw1xkNAe" opacity="1" fill="#000000" fill-opacity="1"></use><g><use xlink:href="#hw1xkNAe" opacity="1" fill-opacity="0" stroke="#000000" stroke-width="1" stroke-opacity="0"></use></g></g><g><use xlink:href="#d1YRyfQq0S" opacity="1" fill="#000000" fill-opacity="1"></use><g><use xlink:href="#d1YRyfQq0S" opacity="1" fill-opacity="0" stroke="#000000" stroke-width="1" stroke-opacity="0"></use></g></g><g><use xlink:href="#f59T9qrxLG" opacity="1" fill="#000000" fill-opacity="1"></use><g><use xlink:href="#f59T9qrxLG" opacity="1" fill-opacity="0" stroke="#000000" stroke-width="1" stroke-opacity="0"></use></g></g><g><use xlink:href="#b1yuwPnRn" opacity="1" fill="#000000" fill-opacity="1"></use><g><use xlink:href="#b1yuwPnRn" opacity="1" fill-opacity="0" stroke="#000000" stroke-width="1" stroke-opacity="0"></use></g></g></g></g></svg>