<svg xmlns="http://www.w3.org/2000/svg" width="640" height="640" viewBox="0 0 640 640"><g transform="translate(0 0)"><path d="M150 134.04L0 134.04L0 284.04L150 284.04L150 134.04Z" id="a15TOEVOQR" class="bin" transform="translate(0 -134.04)"/><g transform="translate(41.660000000000004 43.47) rotate(180)"><path d="M19.19 43.47L39.78 42.45L41.66 31.42L38.75 21.86L22.95 21.43L8.59 25.78L19.19 43.47Z" id="c1XHqPiyr3"/></g><g transform="translate(64.64 43.89373479999999) rotate(180)"><path d="M42.17 22.04L62.76 21.02L64.64 10L61.73 0.43L45.93 0L31.57 4.36L42.17 22.04Z" id="bQrwMvPkl"/></g><g transform="translate(-21.429999999999986 116.8864183) rotate(270)"><path d="M50.76 43.47L71.35 42.45L73.23 31.42L70.33 21.86L54.52 21.43L40.17 25.78L50.76 43.47Z" id="a3dLZA1Pgs"/></g><g transform="translate(-71.74000000000001 52.25505940000001) rotate(0)"><path d="M82.33 43.47L102.92 42.45L104.8 31.42L101.9 21.86L86.09 21.43L71.74 25.78L82.33 43.47Z" id="a2LCWV94Px"/></g><g transform="translate(-21.189023999999993 90.2171989) rotate(270)"><path d="M27.78 64.9L48.37 63.87L50.25 52.85L47.35 43.28L31.54 42.86L17.19 47.21L27.78 64.9Z" id="b4hPvQTNjH"/></g><g transform="translate(32.82874770000001 40.9102307) rotate(270)"><path d="M10.59 22.04L31.18 21.02L33.06 10L30.16 0.43L14.35 0L0 4.36L10.59 22.04Z" id="dF9dYcAQa"/></g><g transform="translate(33.04089910000002 193.4473524) rotate(270)"><path d="M105.31 22.04L125.9 21.02L127.78 10L124.88 0.43L109.07 0L94.72 4.36L105.31 22.04Z" id="f8Y4g8TU"/></g><g transform="translate(-91.26926900000001 68.529933) rotate(0)"><path d="M126.15 25.99L105.56 27.02L103.68 38.04L106.58 47.61L122.39 48.03L136.74 43.67L126.15 25.99Z" id="b3DRPiIuTH"/></g><g transform="translate(192.0456888 60.98344869999998) rotate(180)"><path d="M149.57 23.24L148.54 2.65L137.52 0.77L127.95 3.67L127.53 19.48L131.89 33.83L149.57 23.24Z" id="a2uhkoixM3"/></g><g transform="translate(66.62999789999999 20.681212400000007) rotate(90)"><path d="M73.74 22.04L94.33 21.02L96.21 10L93.3 0.43L77.5 0L63.15 4.36L73.74 22.04Z" id="b1pAtbUGvw"/></g><g transform="translate(117.40548779999999 -56.17276469999999) rotate(90)"><path d="M136.53 48.03L101.17 48.03L125.92 58.64L132.99 58.64L147.14 51.57L136.53 48.03Z" id="e1717RMLk2"/></g><g transform="translate(12.952558100000019 126.18000000000002) rotate(270)"><path d="M90.82 60.44L126.18 60.43L101.43 49.83L94.35 49.83L80.21 56.91L90.82 60.44Z" id="b2jrSniyGN"/></g><g transform="translate(-4.0623407 129.4121416) rotate(270)"><path d="M13.86 38.5L0.33 5.84L0 32.76L2.71 39.3L14.65 49.66L13.86 38.5Z" id="b1kzgPAmca"/></g><g transform="translate(133.8376593 200.58214159999997) rotate(180)"><path d="M102.14 63.27L66.78 63.27L91.53 73.88L98.6 73.88L112.74 66.8L102.14 63.27Z" id="a1TN7uY2Qf"/></g><g transform="translate(77.86000000000001 209.11955319999998) rotate(180)"><path d="M67.26 64.69L31.9 64.69L56.65 75.3L63.72 75.3L77.86 68.22L67.26 64.69Z" id="a224QjdVmi"/></g><g transform="translate(-24.692821600000002 93.84214159999999) rotate(0)"><path d="M89.4 43.47L54.05 43.47L78.8 54.08L85.87 54.08L100.01 47L89.4 43.47Z" id="c1e8LumyRJ"/></g><g transform="translate(179.5944458 204.02302659999998) rotate(180)"><path d="M107.09 79.53L142.44 79.53L117.69 68.92L110.62 68.92L96.48 76L107.09 79.53Z" id="b28tDJDdG"/></g><g transform="translate(94.28068910000002 162.2489691) rotate(180)"><path d="M25 61.8L0 36.8L10 61.8L15 66.8L30 71.8L25 61.8Z" id="bxAemEmXo"/></g><g transform="translate(132.6454878 -2.9127646999999968) rotate(90)"><path d="M59.71 63.27L95.06 63.27L70.31 52.67L63.24 52.67L49.1 59.74L59.71 63.27Z" id="kROwSQres"/></g><g transform="translate(207.9273595 210.44) rotate(180)"><path d="M133.25 60.44L97.89 60.44L122.64 71.04L129.71 71.04L143.85 63.97L133.25 60.44Z" id="bWEnneuQp"/></g><g transform="translate(159.9453803 58.8904158) rotate(90)"><path d="M42.4 93.4L63.61 93.4L67.15 82.79L60.07 75.72L42.4 93.4Z" id="b2TOJG4anO"/></g><g transform="translate(2.8134615000000167 120.3106558) rotate(270)"><path d="M92.86 83.22L77.86 68.22L67.86 73.23L67.86 83.23L92.86 83.22Z" id="b1Zo8GtIn9"/></g><g transform="translate(89.035594 157.183874) rotate(180)"><path d="M0 51.98L0 73.19L10.61 76.73L17.68 69.66L0 51.98Z" id="b1vaniZSc9"/></g><g transform="translate(-61.613197 -23.119999999999997) rotate(0)"><path d="M150 23.12L135 38.13L140 48.13L150 48.12L150 23.12Z" id="a1uUOavmx"/></g><g transform="translate(0.4454878000000235 173.06099220000002) rotate(270)"><path d="M92.09 79.53L107.09 94.53L117.09 89.53L117.09 79.53L92.09 79.53Z" id="a4TXUKeRKk"/></g><g transform="translate(-40.689611699999986 45.9189691) rotate(0)"><path d="M121.23 79.53L136.23 94.53L146.23 89.53L146.23 79.53L121.23 79.53Z" id="bb0xFx2R3"/></g><g transform="translate(184.37248219999998 5.782344299999991) rotate(90)"><path d="M44.22 98.33L29.22 83.33L19.22 88.33L19.22 98.33L44.22 98.33Z" id="c20ujMNlJ"/></g><g transform="translate(17.210147300000003 113.94298070000002) rotate(270)"><path d="M53 82.79L38 67.8L28 72.8L28 82.8L53 82.79Z" id="fmsKSGjlj"/></g><g transform="translate(112.48946930000001 185.8259197) rotate(180)"><path d="M0 87.34L21.22 87.33L24.75 76.73L17.68 69.66L0 87.34Z" id="if0uVSV9R"/></g><g transform="translate(79.22851700000001 108.95) rotate(180)"><path d="M25.1 98.94L15.1 103.94L10.1 108.95L35.1 108.94L25.1 98.94Z" id="c7a7SQxQ9"/></g><g transform="translate(87.6716568 -42.0068303) rotate(0)"><path d="M5.41 103.44L16.56 102.65L23.1 99.94L0 90.38L5.41 103.44Z" id="c2m365YvA6"/></g><g transform="translate(-89.21999999999998 211.54174450000002) rotate(270)"><path d="M100.86 89.22L90.86 94.23L85.87 99.23L110.87 99.22L100.86 89.22Z" id="a2VAwhWCcH"/><path d="M67.86 83.23L82.86 98.23L92.86 93.23L92.86 83.23L67.86 83.23Z" id="b1yCOlwd2" class="null hole"/></g><g transform="translate(148.606803 122.67666509999998) rotate(180)"><path d="M50.22 95.33L40.22 100.33L35.22 105.33L60.22 105.33L50.22 95.33Z" id="bNybkRQOT"/></g><g transform="translate(-22.41834320000001 -47.1568303) rotate(0)"><path d="M125.09 85.53L115.09 90.53L110.09 95.53L135.09 95.53L125.09 85.53Z" id="a2IHOX6AuA"/></g><g transform="translate(99.4 29.061744500000003) rotate(90)"><path d="M71.61 89.4L61.61 94.4L56.61 99.4L81.61 99.4L71.61 89.4Z" id="bRCE44di0"/></g><g transform="translate(4.503404100000026 252.03198490000003) rotate(270)"><path d="M139.09 93.53L129.09 98.53L124.09 103.53L149.09 103.53L139.09 93.53Z" id="a4dXcxRlg0"/></g><g transform="translate(16.776803 -92.05333490000001) rotate(0)"><path d="M81.61 109.4L91.61 104.4L96.61 99.4L71.61 99.4L81.61 109.4Z" id="atxUgKfoc"/></g><g transform="translate(0.790147000000033 186.81227220000002) rotate(270)"><path d="M110.87 109.22L120.87 104.22L125.87 99.22L100.87 99.22L110.87 109.22Z" id="cc70gKrVX"/></g><g transform="translate(-37.87440599999999 20.730817900000005) rotate(0)"><path d="M139.97 77.76L147.29 69.32L150 62.78L126.91 72.36L139.97 77.76Z" id="a1YETlWlee"/></g></g></svg>