<svg xmlns="http://www.w3.org/2000/svg" width="640" height="640" viewBox="0 0 640 640"><g transform="translate(0 0)"><path d="M149.32 105.26L-0.68 105.26L-0.68 255.26L149.32 255.26L149.32 105.26Z" id="bbM2WHXys" class="bin" transform="translate(0.68 -105.26)"/><g transform="translate(-0.6699999999999733 150) rotate(270)"><path d="M125 0.68L140 15.68L150 10.68L150 0.67L125 0.68Z" id="f5nf1V9ZH"/></g><g transform="translate(25 35.004999999999995) rotate(180)"><path d="M0 0L15 15L25 10L25 0L0 0Z" id="b2rGG6lhMp"/></g><g transform="translate(-75 34.325) rotate(0)"><path d="M75 0.68L90 15.68L100 10.68L100 0.68L75 0.68Z" id="ate6SRcMZ"/></g><g transform="translate(125 60.68499999999999) rotate(180)"><path d="M100 0.68L115 15.68L125 10.68L125 0.68L100 0.68Z" id="d3UUQSwrWU"/></g><g transform="translate(25.682499999999994 -49.9925) rotate(90)"><path d="M50 0.68L65 15.68L75 10.68L75 0.68L50 0.68Z" id="a2B2Om1wy"/></g><g transform="translate(50 77.005) rotate(180)"><path d="M25 2L40 17L50 12L50 2L25 2Z" id="bJM09M9H0"/></g><g transform="translate(22.679999999999993 4.0049999999999955) rotate(90)"><path d="M96 22.68L81 7.68L71 12.68L71 22.68L96 22.68Z" id="a4i0ruAou8"/></g><g transform="translate(-7.999999999999993 129.005) rotate(270)"><path d="M44 23L29 8L19 13L19 23L44 23Z" id="bglnO6HiS"/></g><g transform="translate(6.000000000000014 141.005) rotate(270)"><path d="M71 24L56 9L46 14L46 24L71 24Z" id="aiZQnIaVi"/></g><g transform="translate(146 132.68099999999998) rotate(180)"><path d="M146 22.67L131 7.68L121 12.68L121 22.68L146 22.67Z" id="ciehXY6IU"/></g><g transform="translate(74.4328854 15.477885399999998) rotate(90)"><path d="M31.48 52.7L41.78 52.18L42.72 46.67L41.27 41.89L33.36 41.67L26.19 43.85L31.48 52.7Z" id="dx0o3FebC"/></g><g transform="translate(56.373250999999996 -34.7272294) rotate(90)"><path d="M134.12 33.7L144.42 33.18L145.36 27.67L143.9 22.89L136 22.67L128.82 24.85L134.12 33.7Z" id="dO6CA6gOy"/></g><g transform="translate(57.939321899999996 16.3871882) rotate(90)"><path d="M8.91 33.42L19.21 32.91L20.15 27.4L18.69 22.61L10.79 22.4L3.61 24.58L8.91 33.42Z" id="b4UTsUurQV"/></g><g transform="translate(69.0625 -33.8105446) rotate(90)"><path d="M43.28 44.06L53.58 43.55L54.52 38.04L53.06 33.25L45.16 33.04L37.98 35.22L43.28 44.06Z" id="a3zwbWcnIZ"/></g><g transform="translate(-84.7910037 38.053506) rotate(0)"><path d="M110.58 32.16L120.88 31.65L121.82 26.13L120.37 21.35L112.46 21.14L105.29 23.32L110.58 32.16Z" id="b3ppjXIL5"/></g><g transform="translate(-11.829999999999998 99.821) rotate(0)"><path d="M32.12 34.02L42.42 33.51L43.36 28L41.91 23.21L34 23L26.83 25.18L32.12 34.02Z" id="dYYg39N0"/></g><g transform="translate(65.36 156.2635067) rotate(180)"><path d="M54.12 35.02L64.42 34.51L65.36 29L63.91 24.21L56 24L48.83 26.18L54.12 35.02Z" id="b2l9b2g7zf"/></g><g transform="translate(69.77616499999999 -9.399200500000006) rotate(90)"><path d="M121.87 41.8L132.16 41.28L133.1 35.77L131.65 30.99L123.75 30.77L116.57 32.95L121.87 41.8Z" id="a1FfeureKL"/></g><g transform="translate(4.056676999999999 96.95370779999999) rotate(0)"><path d="M5.3 45.77L15.59 45.25L16.53 39.74L15.08 34.96L7.18 34.74L0 36.92L5.3 45.77Z" id="b2cxb4ZE06"/></g><g transform="translate(7.3200000000000145 165.082812) rotate(270)"><path d="M74.12 33.7L84.42 33.19L85.36 27.68L83.9 22.89L76 22.68L68.83 24.86L74.12 33.7Z" id="cWEWaXXXo"/></g><g transform="translate(-10.155258099999976 172.18073449999997) rotate(270)"><path d="M126.17 52.51L136.46 52L137.4 46.49L135.95 41.7L128.04 41.49L120.87 43.67L126.17 52.51Z" id="g5Lm6M7D8"/></g><g transform="translate(169.7899405 177.7023441) rotate(180)"><path d="M138.42 44.41L148.71 43.9L149.65 38.39L148.2 33.6L140.3 33.39L133.12 35.57L138.42 44.41Z" id="c1As4Ucu0W"/></g><g transform="translate(0.651446600000007 154.01591280000002) rotate(270)"><path d="M20.2 43.06L30.49 42.55L31.43 37.03L29.98 32.25L22.08 32.04L14.9 34.21L20.2 43.06Z" id="aHEN4XKrw"/></g><g transform="translate(1.6492416000000105 125.8868828) rotate(270)"><path d="M65.92 44.55L76.21 44.04L77.15 38.53L75.7 33.74L67.8 33.53L60.62 35.71L65.92 44.55Z" id="jCdYyfW6q"/><path d="M55.08 53.59L65.37 53.08L66.31 47.57L64.86 42.78L56.96 42.57L49.78 44.75L55.08 53.59Z" id="j80MSz9Sa" class="null hole"/></g><g transform="translate(-45.93625409999999 35.786409299999995) rotate(0)"><path d="M82.54 44.21L92.83 43.7L93.77 38.19L92.32 33.4L84.42 33.19L77.24 35.37L82.54 44.21Z" id="d13nQokHt0"/></g><g transform="translate(138.8104222 128.1100593) rotate(180)"><path d="M94.12 33.7L104.42 33.18L105.36 27.67L103.9 22.89L96 22.68L88.83 24.85L94.12 33.7Z" id="a7N0Byxb1c"/></g><g transform="translate(144.9387099 22.51999999999999) rotate(180)"><path d="M99.3 22.52L109.59 22.01L110.53 16.5L109.08 11.71L101.18 11.5L94 13.68L99.3 22.52Z" id="ah3LAUWdL"/></g><g transform="translate(-66.75067809999999 -14.492811800000002) rotate(0)"><path d="M105.41 43.33L115.7 42.82L116.64 37.31L115.19 32.53L107.29 32.31L100.11 34.49L105.41 43.33Z" id="f2pbd3yJb9"/></g><g transform="translate(61.7922865 106.6435558) rotate(90)"><path d="M11.23 11.81L0.94 12.33L0 17.84L1.45 22.62L9.36 22.83L16.53 20.66L11.23 11.81Z" id="efW5R4Npo"/></g><g transform="translate(95.53158479999999 -21.3110638) rotate(90)"><path d="M101.09 54.54L111.7 54.54L113.47 49.23L109.93 45.7L101.09 54.54Z" id="f18422BSD1"/></g><g transform="translate(4.961618800000025 134.1144883) rotate(270)"><path d="M106.09 44.29L98.58 36.79L93.58 39.29L93.58 44.29L106.09 44.29Z" id="f4KskHVvX"/></g><g transform="translate(142.7599405 187.32286) rotate(180)"><path d="M93.58 44.29L101.09 51.79L106.09 49.29L106.09 44.29L93.58 44.29Z" id="be0nBZeOw"/></g><g transform="translate(0 89.67095470000001) rotate(0)"><path d="M0 43.35L0 53.96L5.3 55.73L8.84 52.19L0 43.35Z" id="a1rx3nKQ3o"/></g><g transform="translate(128.2658955 112.89633239999998) rotate(180)"><path d="M87.72 49.54L80.21 42.04L75.21 44.54L75.22 49.54L87.72 49.54Z" id="agdqGb8GC"/></g><g transform="translate(-25.092241199999997 -35.8389313) rotate(0)"><path d="M78.63 53.67L71.12 46.17L66.12 48.67L66.13 53.67L78.63 53.67Z" id="c1orztD4XD"/></g><g transform="translate(-66.4784152 36.54893620000001) rotate(0)"><path d="M107.47 43.23L114.97 50.73L119.97 48.23L119.97 43.23L107.47 43.23Z" id="b2VTSasAW"/></g><g transform="translate(-5.828553399999983 212.7916477) rotate(270)"><path d="M75.22 49.54L82.72 57.04L87.72 54.54L87.72 49.54L75.22 49.54Z" id="b2A5vQ7drQ"/></g><g transform="translate(142.4133244 91.73448829999998) rotate(180)"><path d="M100.33 51.2L92.83 43.7L87.83 46.2L87.83 51.2L100.33 51.2Z" id="d1FEtBDLA"/></g><g transform="translate(-1.333127399999995 141.2836484) rotate(270)"><path d="M55.08 53.59L47.58 46.09L42.58 48.59L42.58 53.59L55.08 53.59Z" id="bw1frEJJy"/></g><g transform="translate(-93.10491259999999 92.99800690000001) rotate(0)"><path d="M136.82 44.57L144.32 52.07L149.32 49.57L149.32 44.57L136.82 44.57Z" id="b8lTbMW11A"/></g><g transform="translate(103.84534120000001 28.873479899999992) rotate(90)"><path d="M17.26 50.46L24.76 57.96L29.76 55.46L29.76 50.46L17.26 50.46Z" id="e2scNclHsp"/></g><g transform="translate(3.4816187999999997 43.33448830000001) rotate(270)"><path d="M2.8 45.77L10.3 53.27L15.3 50.77L15.3 45.77L2.8 45.77Z" id="biq70yRPn"/></g><g transform="translate(-7.894536599999995 67.4556645) rotate(0)"><path d="M52.58 53.59L60.08 61.09L65.08 58.59L65.08 53.59L52.58 53.59Z" id="a2YU4FXvgv"/></g><g transform="translate(105.1070628 -12.678658999999996) rotate(90)"><path d="M128.47 55.23L120.97 47.73L115.97 50.23L115.97 55.23L128.47 55.23Z" id="d1ae4IKeUw"/></g><g transform="translate(-88.7631643 22.778936200000004) rotate(0)"><path d="M148.96 57L141.46 49.5L136.46 52L136.46 57L148.96 57Z" id="f2ESIvDHQt"/></g><g transform="translate(31.4550874 87.1080069) rotate(0)"><path d="M29.76 50.45L22.26 42.96L17.26 45.46L17.26 50.46L29.76 50.45Z" id="f2uPTOpBL"/></g><g transform="translate(-42.191290099999996 -51.2) rotate(0)"><path d="M87.83 51.2L95.33 58.7L100.33 56.2L100.33 51.2L87.83 51.2Z" id="bUr8nNI9j"/></g><g transform="translate(-0.6907866999999897 38.09489930000001) rotate(270)"><path d="M23.8 57.76L16.3 50.27L11.3 52.77L11.3 57.77L23.8 57.76Z" id="i92ir6PSM"/></g><g transform="translate(92.2422865 174.4956645) rotate(180)"><path d="M29.76 53.46L37.26 60.95L42.26 58.45L42.26 53.45L29.76 53.46Z" id="b1PrN4Kz1"/></g><g transform="translate(118.85000000000001 70.45499999999998) rotate(180)"><path d="M100 8.68L105.3 10.45L108.84 10.44L100 1.61L100 8.68Z" id="j6jHbhHZF6"/></g><g transform="translate(167.693043 79.72347989999999) rotate(180)"><path d="M110.53 19.33L115.84 21.09L119.37 21.09L110.53 12.25L110.53 19.33Z" id="l4kAV0GpCd"/></g><g transform="translate(25.377452500000004 145.1930685) rotate(270)"><path d="M43.36 30.83L48.66 32.59L52.2 32.59L43.36 23.75L43.36 30.83Z" id="a1aCtRBlGK"/></g><g transform="translate(71.6853417 -136.1933159) rotate(90)"><path d="M143 16.68L145.5 21.68L148 24.18L148 11.68L143 16.68Z" id="a5N3PgS3tf"/></g><g transform="translate(-38.52999999999998 216.202996) rotate(270)"><path d="M113.7 53.53L108.7 56.04L106.2 58.54L118.7 58.53L113.7 53.53Z" id="bBkfdSCMS"/></g><g transform="translate(127.8816188 94.2044883) rotate(180)"><path d="M71.13 58.67L76.13 56.17L78.63 53.67L66.13 53.67L71.13 58.67Z" id="b3wHuEX871"/></g><g transform="translate(-32.167869599999996 13.738936200000005) rotate(0)"><path d="M89.72 53.54L84.72 56.04L82.22 58.54L94.72 58.54L89.72 53.54Z" id="cD5F3nJf9"/></g><g transform="translate(58.22999999999999 -87.465) rotate(90)"><path d="M132.47 53.23L127.47 55.73L124.97 58.23L137.47 58.23L132.47 53.23Z" id="bdHVtSj5M"/></g><g transform="translate(-30.403571499999998 88.59883210000001) rotate(0)"><path d="M50.08 53.59L45.08 56.09L42.58 58.59L55.08 58.59L50.08 53.59Z" id="iQv8MjUiA"/></g><g transform="translate(23.300000000000008 134.775) rotate(180)"><path d="M8.3 54.77L3.3 57.27L0.8 59.77L13.3 59.77L8.3 54.77Z" id="c23ip9v11K"/></g><g transform="translate(-3.006460699999984 188.40698170000002) rotate(270)"><path d="M102.33 55.2L97.33 57.7L94.83 60.2L107.33 60.2L102.33 55.2Z" id="gc2Ot6PYB"/></g><g transform="translate(-42.150839899999994 87.1720796) rotate(0)"><path d="M78.13 55.17L73.13 57.67L70.63 60.17L83.13 60.17L78.13 55.17Z" id="acVHkdwh9"/></g><g transform="translate(189.24837970000002 205.03285999999997) rotate(180)"><path d="M141.46 62L146.46 59.5L148.96 57L136.46 57L141.46 62Z" id="aCJKzvdxC"/></g><g transform="translate(137.71 61.52999999999999) rotate(180)"><path d="M122.7 56.53L117.7 59.03L115.2 61.53L127.7 61.53L122.7 56.53Z" id="g4BSRJl5k2"/></g><g transform="translate(25.952367400000007 206.664771) rotate(180)"><path d="M17.26 62.96L22.26 60.46L24.76 57.96L12.26 57.96L17.26 62.96Z" id="b5x1ZEEjI"/></g><g transform="translate(116.61534119999999 -75.8542219) rotate(90)"><path d="M129.97 63.23L134.97 60.73L137.47 58.23L124.97 58.23L129.97 63.23Z" id="a1Xo4RPWO"/></g><g transform="translate(61.106826000000005 161.9599832) rotate(180)"><path d="M0.07 31.65L5.38 33.42L8.91 33.42L0.07 24.58L0.07 31.65Z" id="d3nQoC60W"/></g><g transform="translate(0 111.82234170000001) rotate(0)"><path d="M0 7.78L5.3 9.54L8.84 9.54L0 0.71L0 7.78Z" id="b1KTr5LuBR"/></g><g transform="translate(28.616791000000006 167.1612713) rotate(270)"><path d="M20.15 30.23L25.45 31.99L28.98 31.99L20.15 23.15L20.15 30.23Z" id="flBIA6Bwx"/></g><g transform="translate(-0.17751179999999778 59.85622710000001) rotate(270)"><path d="M30.76 54.96L25.76 57.46L23.26 59.96L35.76 59.95L30.76 54.96Z" id="c29hLCfV0V"/></g></g></svg>