<?xml version="1.0" encoding="UTF-8" standalone="no"?>
<!DOCTYPE svg PUBLIC "-//W3C//DTD SVG 1.1//EN" "http://www.w3.org/Graphics/SVG/1.1/DTD/svg11.dtd">
<svg version="1.1" xmlns="http://www.w3.org/2000/svg" xmlns:xlink="http://www.w3.org/1999/xlink" preserveAspectRatio="xMidYMid meet" viewBox="0 0 640 640" width="640" height="640"><defs><path d="M0 121.58L0 135.72L14.14 135.72L14.14 121.58L0 121.58Z" id="ebNuc9E09"></path><path d="M14.14 133.38L14.92 137.3L24.34 133.39L14.14 133.38Z" id="b1MYJH9s1J"></path><path d="M18.06 123.18L14.14 123.96L18.05 133.38L18.06 123.18Z" id="g2pWOZc0ps"></path><path d="M26.63 136.68L25.85 132.76L16.43 136.67L26.63 136.68Z" id="a19AhewQhu"></path><path d="M17.74 121.58L18.52 125.5L27.94 121.59L17.74 121.58Z" id="d1m3uD8Kym"></path><path d="M18.05 129.46L18.84 133.38L28.25 129.47L18.05 129.46Z" id="lc48IHVRQ"></path><path d="M28.25 129.47L27.46 125.55L18.05 129.46L28.25 129.47Z" id="c1k46zvXo4"></path><path d="M150 454.54L150 304.54L0 304.54L0 454.54L150 454.54Z" id="a1eBrcZ4S"></path><path d="M0 151.89L0 166.03L14.14 166.03L14.14 151.89L0 151.89Z" id="ddDP5a6T4"></path><path d="M14.14 180.17L14.14 166.03L0 166.03L0 180.17L14.14 180.17Z" id="aMREkqZiD"></path><path d="M0 180.17L0 194.31L14.14 194.31L14.14 180.17L0 180.17Z" id="ghSqC0mj3"></path><path d="M14.14 194.31L0 194.31L0 208.45L14.14 208.45L14.14 194.31Z" id="e2IKophtL"></path><path d="M14.14 208.45L0 208.45L0 222.59L14.14 222.59L14.14 208.45Z" id="i4saBXsBFx"></path><path d="M14.14 236.73L14.14 222.59L0 222.59L0 236.73L14.14 236.73Z" id="d5PoqnjO6"></path><path d="M14.14 250.87L14.14 236.73L0 236.73L0 250.87L14.14 250.87Z" id="dFCDZbk6L"></path><path d="M0 265.01L14.14 265.01L14.14 250.87L0 250.87L0 265.01Z" id="f1F704FsZ"></path><path d="M0 279.15L14.14 279.15L14.14 265.01L0 265.01L0 279.15Z" id="cpKT7txkg"></path><path d="M0 279.15L0.98 289.11L6.95 288.52L0 279.15Z" id="b1gtDpTh2K"></path><path d="M2.29 268.1L2.29 282.24L16.43 282.24L16.43 268.1L2.29 268.1Z" id="e3sDOvenuE"></path><path d="M2.29 282.24L2.04 279.75L0.55 279.9L2.29 282.24Z" id="a4iS1OS2r"></path><path d="M15.57 283.86L6.75 279.15L3.92 284.44L15.57 283.86Z" id="gXUK1RgeY"></path><path d="M7.32 295.95L12.03 287.13L6.74 284.3L7.32 295.95Z" id="egpfLuh41"></path><path d="M11.65 298.26L2.83 293.55L0 298.84L11.65 298.26Z" id="c18Z3PCy2w"></path><path d="M12.03 287.13L7.32 295.95L12.61 298.78L12.03 287.13Z" id="f80LMd7KC"></path><path d="M6.74 284.3L15.56 289.01L18.39 283.72L6.74 284.3Z" id="b7dK90nYm"></path><path d="M17.13 286.08L12.42 294.9L17.71 297.73L17.13 286.08Z" id="b2wJB74p9d"></path><path d="M24.15 281.64L15.33 276.93L12.5 282.22L24.15 281.64Z" id="a6ZQYfJxM"></path><path d="M14.14 276.29L22.96 281L25.79 275.71L14.14 276.29Z" id="cqDHSpvmg"></path><path d="M18.85 264.38L14.14 273.2L19.43 276.03L18.85 264.38Z" id="g1Ooe1iJxJ"></path><path d="M14.72 272.12L19.43 263.3L14.14 260.47L14.72 272.12Z" id="cdXhMMqpR"></path><path d="M14.14 260.47L24.09 259.49L23.5 253.52L14.14 260.47Z" id="eQacgQXIh"></path><path d="M14.14 260.47L22.96 265.18L25.78 259.89L14.14 260.47Z" id="aB4eXl2cY"></path><path d="M25.78 253.4L16.96 248.69L14.14 253.98L25.78 253.4Z" id="gnQqHXw9E"></path><path d="M25.78 248.25L16.96 243.54L14.14 248.83L25.78 248.25Z" id="eeJQIe3hy"></path><path d="M18.85 233.22L14.14 242.04L19.43 244.86L18.85 233.22Z" id="a4vjWaOiS"></path><path d="M25.78 232.87L16.96 228.16L14.14 233.45L25.78 232.87Z" id="e73dcfkox"></path><path d="M14.72 232.35L19.43 223.54L14.14 220.71L14.72 232.35Z" id="c39yhwBtpo"></path><path d="M25.78 220.13L16.97 215.42L14.14 220.71L25.78 220.13Z" id="c1B4Dzhhem"></path><path d="M14.72 219.63L19.43 210.82L14.14 207.99L14.72 219.63Z" id="bBX65Wyfl"></path><path d="M24.33 208L23.55 204.07L14.14 207.99L24.33 208Z" id="c9o39609JU"></path><path d="M24.14 204.19L24.14 200.19L14.14 202.19L24.14 204.19Z" id="cDmN2WKo1"></path><path d="M14.92 196.28L14.14 200.2L24.34 200.19L14.92 196.28Z" id="a2HjLKFtj2"></path><path d="M18.06 187.38L14.14 188.16L18.05 197.58L18.06 187.38Z" id="g3f2GVYgct"></path><path d="M18.06 177.18L14.14 177.96L18.05 187.38L18.06 177.18Z" id="ckbDW3cRa"></path><path d="M18.06 166.98L14.14 167.76L18.05 177.18L18.06 166.98Z" id="a2chqq9Nx4"></path><path d="M14.14 163.69L14.92 167.61L24.34 163.7L14.14 163.69Z" id="a17hON0daG"></path><path d="M18.06 153.49L14.14 154.27L18.05 163.69L18.06 153.49Z" id="bcKyUcYUr"></path><path d="M26.63 166.99L25.85 163.07L16.43 166.98L26.63 166.99Z" id="ajSk2T2lT"></path><path d="M17.59 295.39L21.51 294.61L17.6 285.19L17.59 295.39Z" id="b7kJEU82nV"></path><path d="M23.56 224.62L24.34 220.7L14.14 220.71L23.56 224.62Z" id="apwt1obF8"></path><path d="M21.52 284.41L17.6 285.19L21.51 294.61L21.52 284.41Z" id="jD9Fl5QP8"></path><path d="M27.16 228.17L26.38 224.25L16.96 228.16L27.16 228.17Z" id="aissstlTv"></path><path d="M27.17 215.43L26.39 211.51L16.97 215.42L27.17 215.43Z" id="d5VVRMSDo6"></path><path d="M17.74 151.89L18.52 155.81L27.94 151.9L17.74 151.89Z" id="a4PNXE3vr2"></path><path d="M17.59 295.39L18.37 299.31L27.79 295.4L17.59 295.39Z" id="b3oCpsjScr"></path><path d="M18.05 197.58L21.97 196.8L18.06 187.38L18.05 197.58Z" id="c27feamlDJ"></path><path d="M18.05 177.13L18.83 181.05L28.25 177.14L18.05 177.13Z" id="e26ZhWrTb3"></path><path d="M19.31 273.69L23.23 272.91L19.32 263.49L19.31 273.69Z" id="bzJa8AhKL"></path><path d="M21.97 186.57L18.05 187.35L21.96 196.77L21.97 186.57Z" id="bRcS0qKe3"></path><path d="M22.8 233.02L18.88 233.8L22.79 243.22L22.8 233.02Z" id="a3TWTTJ3aw"></path><path d="M25.26 285.96L26.04 282.04L15.84 282.05L25.26 285.96Z" id="bNn3xquhS"></path><path d="M18.05 159.77L18.84 163.69L28.25 159.78L18.05 159.77Z" id="afIBl1znS"></path><path d="M21.96 196.77L25.88 195.98L21.97 186.57L21.96 196.77Z" id="d1qMhneYlS"></path><path d="M28.25 177.14L27.46 173.22L18.05 177.13L28.25 177.14Z" id="a2vdXYg9JN"></path><path d="M23.47 179.96L19.55 180.75L23.46 190.16L23.47 179.96Z" id="dUuINutYq"></path><path d="M18.05 172.88L18.84 176.8L28.25 172.89L18.05 172.88Z" id="a3bUJyb2e"></path><path d="M28.25 159.78L27.46 155.86L18.05 159.77L28.25 159.78Z" id="gjJPcE3T"></path><path d="M22.79 246.65L26.71 245.86L22.8 236.45L22.79 246.65Z" id="aDpbaao1d"></path><path d="M24.17 264.93L20.25 265.72L24.16 275.13L24.17 264.93Z" id="bdjIZ740z"></path><path d="M3 293.64L5 292.64L5 290.64L0 290.64L3 293.64Z" id="frAnymQG4"></path><path d="M21.06 169.88L20.06 167.88L18.06 167.88L18.06 172.88L21.06 169.88Z" id="a9JYaxudg"></path><path d="M20.06 170.88L21.06 172.88L23.06 172.88L23.06 167.88L20.06 170.88Z" id="d5zk7nEPlD"></path><path d="M19.61 211L21.61 210L21.61 208L16.61 208L19.61 211Z" id="ipZN8biGc"></path><path d="M14.61 296.07L12.61 297.07L12.61 299.07L17.61 299.07L14.61 296.07Z" id="cikTGdElw"></path><path d="M23.51 292.4L21.51 293.4L21.51 295.4L26.51 295.4L23.51 292.4Z" id="a4Jr7caT5s"></path><path d="M24.52 290.4L23.52 288.4L21.52 288.4L21.52 293.4L24.52 290.4Z" id="a43MQkHo0"></path><path d="M26.06 169.88L25.06 167.88L23.06 167.88L23.06 172.88L26.06 169.88Z" id="a20OwOeuWn"></path><path d="M22.41 209.92L23.41 211.92L25.41 211.92L25.41 206.92L22.41 209.92Z" id="b5oBZuzOTm"></path><path d="M22.8 236.45L23.8 238.45L25.8 238.45L25.8 233.45L22.8 236.45Z" id="b1rewIWg0q"></path><path d="M17.05 258.3L14.84 257.12L14.14 258.45L17.05 258.3Z" id="a8XqZi84r"></path><path d="M5.32 292.05L4.14 294.25L5.47 294.96L5.32 292.05Z" id="bhpuUMjmq"></path><path d="M0 297.83L1.58 295.89L0.42 294.94L0 297.83Z" id="clK6tvypq"></path><path d="M14.14 257.2L16.63 256.95L16.48 255.46L14.14 257.2Z" id="g6ub7E9IKS"></path><path d="M0 289.46L2.21 290.64L2.91 289.32L0 289.46Z" id="a3r0A9OP1W"></path><path d="M17.05 255.43L14.84 254.25L14.14 255.57L17.05 255.43Z" id="aUVMNbYZ0"></path><path d="M3.03 281.35L1.85 279.15L0.53 279.86L3.03 281.35Z" id="b1Ukn8M5D4"></path><path d="M3.06 282.06L4.24 279.86L2.92 279.15L3.06 282.06Z" id="bzuj1ShzJ"></path><path d="M7.03 279.29L9.23 280.47L9.94 279.15L7.03 279.29Z" id="a4sxYq1oVD"></path><path d="M6.18 289.68L5 291.88L6.32 292.59L6.18 289.68Z" id="a10XELUGmC"></path><path d="M9.23 280.47L11.43 281.65L12.14 280.33L9.23 280.47Z" id="e2CpsytjVw"></path><path d="M15.32 236.66L14.14 238.86L15.46 239.57L15.32 236.66Z" id="ga8xCgnZDp"></path><path d="M12.19 290.32L13.77 288.39L12.61 287.44L12.19 290.32Z" id="c28QZhRUqa"></path><path d="M14.14 235.69L16.07 237.27L17.02 236.11L14.14 235.69Z" id="agTcqy4JE"></path><path d="M15.31 204.53L14.14 206.73L15.46 207.44L15.31 204.53Z" id="a1aYbPQguu"></path><path d="M15.38 187.91L15.63 185.43L14.14 185.28L15.38 187.91Z" id="a22NXUlVvQ"></path><path d="M16.3 205.43L15.57 203.04L14.14 203.47L16.3 205.43Z" id="b31pZR9XOV"></path><path d="M18.06 205.6L15.58 205.36L15.43 206.85L18.06 205.6Z" id="b6FyyG1Ql"></path><path d="M16.64 177.46L15.46 175.26L14.14 175.96L16.64 177.46Z" id="d1Rd6VBFGH"></path></defs><g><g><g><use xlink:href="#ebNuc9E09" opacity="1" fill="#000000" fill-opacity="1"></use><g><use xlink:href="#ebNuc9E09" opacity="1" fill-opacity="0" stroke="#000000" stroke-width="1" stroke-opacity="0"></use></g></g><g><use xlink:href="#b1MYJH9s1J" opacity="1" fill="#000000" fill-opacity="1"></use><g><use xlink:href="#b1MYJH9s1J" opacity="1" fill-opacity="0" stroke="#000000" stroke-width="1" stroke-opacity="0"></use></g></g><g><use xlink:href="#g2pWOZc0ps" opacity="1" fill="#000000" fill-opacity="1"></use><g><use xlink:href="#g2pWOZc0ps" opacity="1" fill-opacity="0" stroke="#000000" stroke-width="1" stroke-opacity="0"></use></g></g><g><use xlink:href="#a19AhewQhu" opacity="1" fill="#000000" fill-opacity="1"></use><g><use xlink:href="#a19AhewQhu" opacity="1" fill-opacity="0" stroke="#000000" stroke-width="1" stroke-opacity="0"></use></g></g><g><use xlink:href="#d1m3uD8Kym" opacity="1" fill="#000000" fill-opacity="1"></use><g><use xlink:href="#d1m3uD8Kym" opacity="1" fill-opacity="0" stroke="#000000" stroke-width="1" stroke-opacity="0"></use></g></g><g><use xlink:href="#lc48IHVRQ" opacity="1" fill="#000000" fill-opacity="1"></use><g><use xlink:href="#lc48IHVRQ" opacity="1" fill-opacity="0" stroke="#000000" stroke-width="1" stroke-opacity="0"></use></g></g><g><use xlink:href="#c1k46zvXo4" opacity="1" fill="#000000" fill-opacity="1"></use><g><use xlink:href="#c1k46zvXo4" opacity="1" fill-opacity="0" stroke="#000000" stroke-width="1" stroke-opacity="0"></use></g></g><g><use xlink:href="#a1eBrcZ4S" opacity="1" fill="#000000" fill-opacity="1"></use><g><use xlink:href="#a1eBrcZ4S" opacity="1" fill-opacity="0" stroke="#000000" stroke-width="1" stroke-opacity="0"></use></g></g><g><use xlink:href="#ddDP5a6T4" opacity="1" fill="#000000" fill-opacity="1"></use><g><use xlink:href="#ddDP5a6T4" opacity="1" fill-opacity="0" stroke="#000000" stroke-width="1" stroke-opacity="0"></use></g></g><g><use xlink:href="#aMREkqZiD" opacity="1" fill="#000000" fill-opacity="1"></use><g><use xlink:href="#aMREkqZiD" opacity="1" fill-opacity="0" stroke="#000000" stroke-width="1" stroke-opacity="0"></use></g></g><g><use xlink:href="#ghSqC0mj3" opacity="1" fill="#000000" fill-opacity="1"></use><g><use xlink:href="#ghSqC0mj3" opacity="1" fill-opacity="0" stroke="#000000" stroke-width="1" stroke-opacity="0"></use></g></g><g><use xlink:href="#e2IKophtL" opacity="1" fill="#000000" fill-opacity="1"></use><g><use xlink:href="#e2IKophtL" opacity="1" fill-opacity="0" stroke="#000000" stroke-width="1" stroke-opacity="0"></use></g></g><g><use xlink:href="#i4saBXsBFx" opacity="1" fill="#000000" fill-opacity="1"></use><g><use xlink:href="#i4saBXsBFx" opacity="1" fill-opacity="0" stroke="#000000" stroke-width="1" stroke-opacity="0"></use></g></g><g><use xlink:href="#d5PoqnjO6" opacity="1" fill="#000000" fill-opacity="1"></use><g><use xlink:href="#d5PoqnjO6" opacity="1" fill-opacity="0" stroke="#000000" stroke-width="1" stroke-opacity="0"></use></g></g><g><use xlink:href="#dFCDZbk6L" opacity="1" fill="#000000" fill-opacity="1"></use><g><use xlink:href="#dFCDZbk6L" opacity="1" fill-opacity="0" stroke="#000000" stroke-width="1" stroke-opacity="0"></use></g></g><g><use xlink:href="#f1F704FsZ" opacity="1" fill="#000000" fill-opacity="1"></use><g><use xlink:href="#f1F704FsZ" opacity="1" fill-opacity="0" stroke="#000000" stroke-width="1" stroke-opacity="0"></use></g></g><g><use xlink:href="#cpKT7txkg" opacity="1" fill="#000000" fill-opacity="1"></use><g><use xlink:href="#cpKT7txkg" opacity="1" fill-opacity="0" stroke="#000000" stroke-width="1" stroke-opacity="0"></use></g></g><g><use xlink:href="#b1gtDpTh2K" opacity="1" fill="#000000" fill-opacity="1"></use><g><use xlink:href="#b1gtDpTh2K" opacity="1" fill-opacity="0" stroke="#000000" stroke-width="1" stroke-opacity="0"></use></g></g><g><use xlink:href="#e3sDOvenuE" opacity="1" fill="#000000" fill-opacity="1"></use><g><use xlink:href="#e3sDOvenuE" opacity="1" fill-opacity="0" stroke="#000000" stroke-width="1" stroke-opacity="0"></use></g></g><g><use xlink:href="#a4iS1OS2r" opacity="1" fill="#000000" fill-opacity="1"></use><g><use xlink:href="#a4iS1OS2r" opacity="1" fill-opacity="0" stroke="#000000" stroke-width="1" stroke-opacity="0"></use></g></g><g><use xlink:href="#gXUK1RgeY" opacity="1" fill="#000000" fill-opacity="1"></use><g><use xlink:href="#gXUK1RgeY" opacity="1" fill-opacity="0" stroke="#000000" stroke-width="1" stroke-opacity="0"></use></g></g><g><use xlink:href="#egpfLuh41" opacity="1" fill="#000000" fill-opacity="1"></use><g><use xlink:href="#egpfLuh41" opacity="1" fill-opacity="0" stroke="#000000" stroke-width="1" stroke-opacity="0"></use></g></g><g><use xlink:href="#c18Z3PCy2w" opacity="1" fill="#000000" fill-opacity="1"></use><g><use xlink:href="#c18Z3PCy2w" opacity="1" fill-opacity="0" stroke="#000000" stroke-width="1" stroke-opacity="0"></use></g></g><g><use xlink:href="#f80LMd7KC" opacity="1" fill="#000000" fill-opacity="1"></use><g><use xlink:href="#f80LMd7KC" opacity="1" fill-opacity="0" stroke="#000000" stroke-width="1" stroke-opacity="0"></use></g></g><g><use xlink:href="#b7dK90nYm" opacity="1" fill="#000000" fill-opacity="1"></use><g><use xlink:href="#b7dK90nYm" opacity="1" fill-opacity="0" stroke="#000000" stroke-width="1" stroke-opacity="0"></use></g></g><g><use xlink:href="#b2wJB74p9d" opacity="1" fill="#000000" fill-opacity="1"></use><g><use xlink:href="#b2wJB74p9d" opacity="1" fill-opacity="0" stroke="#000000" stroke-width="1" stroke-opacity="0"></use></g></g><g><use xlink:href="#a6ZQYfJxM" opacity="1" fill="#000000" fill-opacity="1"></use><g><use xlink:href="#a6ZQYfJxM" opacity="1" fill-opacity="0" stroke="#000000" stroke-width="1" stroke-opacity="0"></use></g></g><g><use xlink:href="#cqDHSpvmg" opacity="1" fill="#000000" fill-opacity="1"></use><g><use xlink:href="#cqDHSpvmg" opacity="1" fill-opacity="0" stroke="#000000" stroke-width="1" stroke-opacity="0"></use></g></g><g><use xlink:href="#g1Ooe1iJxJ" opacity="1" fill="#000000" fill-opacity="1"></use><g><use xlink:href="#g1Ooe1iJxJ" opacity="1" fill-opacity="0" stroke="#000000" stroke-width="1" stroke-opacity="0"></use></g></g><g><use xlink:href="#cdXhMMqpR" opacity="1" fill="#000000" fill-opacity="1"></use><g><use xlink:href="#cdXhMMqpR" opacity="1" fill-opacity="0" stroke="#000000" stroke-width="1" stroke-opacity="0"></use></g></g><g><use xlink:href="#eQacgQXIh" opacity="1" fill="#000000" fill-opacity="1"></use><g><use xlink:href="#eQacgQXIh" opacity="1" fill-opacity="0" stroke="#000000" stroke-width="1" stroke-opacity="0"></use></g></g><g><use xlink:href="#aB4eXl2cY" opacity="1" fill="#000000" fill-opacity="1"></use><g><use xlink:href="#aB4eXl2cY" opacity="1" fill-opacity="0" stroke="#000000" stroke-width="1" stroke-opacity="0"></use></g></g><g><use xlink:href="#gnQqHXw9E" opacity="1" fill="#000000" fill-opacity="1"></use><g><use xlink:href="#gnQqHXw9E" opacity="1" fill-opacity="0" stroke="#000000" stroke-width="1" stroke-opacity="0"></use></g></g><g><use xlink:href="#eeJQIe3hy" opacity="1" fill="#000000" fill-opacity="1"></use><g><use xlink:href="#eeJQIe3hy" opacity="1" fill-opacity="0" stroke="#000000" stroke-width="1" stroke-opacity="0"></use></g></g><g><use xlink:href="#a4vjWaOiS" opacity="1" fill="#000000" fill-opacity="1"></use><g><use xlink:href="#a4vjWaOiS" opacity="1" fill-opacity="0" stroke="#000000" stroke-width="1" stroke-opacity="0"></use></g></g><g><use xlink:href="#e73dcfkox" opacity="1" fill="#000000" fill-opacity="1"></use><g><use xlink:href="#e73dcfkox" opacity="1" fill-opacity="0" stroke="#000000" stroke-width="1" stroke-opacity="0"></use></g></g><g><use xlink:href="#c39yhwBtpo" opacity="1" fill="#000000" fill-opacity="1"></use><g><use xlink:href="#c39yhwBtpo" opacity="1" fill-opacity="0" stroke="#000000" stroke-width="1" stroke-opacity="0"></use></g></g><g><use xlink:href="#c1B4Dzhhem" opacity="1" fill="#000000" fill-opacity="1"></use><g><use xlink:href="#c1B4Dzhhem" opacity="1" fill-opacity="0" stroke="#000000" stroke-width="1" stroke-opacity="0"></use></g></g><g><use xlink:href="#bBX65Wyfl" opacity="1" fill="#000000" fill-opacity="1"></use><g><use xlink:href="#bBX65Wyfl" opacity="1" fill-opacity="0" stroke="#000000" stroke-width="1" stroke-opacity="0"></use></g></g><g><use xlink:href="#c9o39609JU" opacity="1" fill="#000000" fill-opacity="1"></use><g><use xlink:href="#c9o39609JU" opacity="1" fill-opacity="0" stroke="#000000" stroke-width="1" stroke-opacity="0"></use></g></g><g><use xlink:href="#cDmN2WKo1" opacity="1" fill="#000000" fill-opacity="1"></use><g><use xlink:href="#cDmN2WKo1" opacity="1" fill-opacity="0" stroke="#000000" stroke-width="1" stroke-opacity="0"></use></g></g><g><use xlink:href="#a2HjLKFtj2" opacity="1" fill="#000000" fill-opacity="1"></use><g><use xlink:href="#a2HjLKFtj2" opacity="1" fill-opacity="0" stroke="#000000" stroke-width="1" stroke-opacity="0"></use></g></g><g><use xlink:href="#g3f2GVYgct" opacity="1" fill="#000000" fill-opacity="1"></use><g><use xlink:href="#g3f2GVYgct" opacity="1" fill-opacity="0" stroke="#000000" stroke-width="1" stroke-opacity="0"></use></g></g><g><use xlink:href="#ckbDW3cRa" opacity="1" fill="#000000" fill-opacity="1"></use><g><use xlink:href="#ckbDW3cRa" opacity="1" fill-opacity="0" stroke="#000000" stroke-width="1" stroke-opacity="0"></use></g></g><g><use xlink:href="#a2chqq9Nx4" opacity="1" fill="#000000" fill-opacity="1"></use><g><use xlink:href="#a2chqq9Nx4" opacity="1" fill-opacity="0" stroke="#000000" stroke-width="1" stroke-opacity="0"></use></g></g><g><use xlink:href="#a17hON0daG" opacity="1" fill="#000000" fill-opacity="1"></use><g><use xlink:href="#a17hON0daG" opacity="1" fill-opacity="0" stroke="#000000" stroke-width="1" stroke-opacity="0"></use></g></g><g><use xlink:href="#bcKyUcYUr" opacity="1" fill="#000000" fill-opacity="1"></use><g><use xlink:href="#bcKyUcYUr" opacity="1" fill-opacity="0" stroke="#000000" stroke-width="1" stroke-opacity="0"></use></g></g><g><use xlink:href="#ajSk2T2lT" opacity="1" fill="#000000" fill-opacity="1"></use><g><use xlink:href="#ajSk2T2lT" opacity="1" fill-opacity="0" stroke="#000000" stroke-width="1" stroke-opacity="0"></use></g></g><g><use xlink:href="#b7kJEU82nV" opacity="1" fill="#000000" fill-opacity="1"></use><g><use xlink:href="#b7kJEU82nV" opacity="1" fill-opacity="0" stroke="#000000" stroke-width="1" stroke-opacity="0"></use></g></g><g><use xlink:href="#apwt1obF8" opacity="1" fill="#000000" fill-opacity="1"></use><g><use xlink:href="#apwt1obF8" opacity="1" fill-opacity="0" stroke="#000000" stroke-width="1" stroke-opacity="0"></use></g></g><g><use xlink:href="#jD9Fl5QP8" opacity="1" fill="#000000" fill-opacity="1"></use><g><use xlink:href="#jD9Fl5QP8" opacity="1" fill-opacity="0" stroke="#000000" stroke-width="1" stroke-opacity="0"></use></g></g><g><use xlink:href="#aissstlTv" opacity="1" fill="#000000" fill-opacity="1"></use><g><use xlink:href="#aissstlTv" opacity="1" fill-opacity="0" stroke="#000000" stroke-width="1" stroke-opacity="0"></use></g></g><g><use xlink:href="#d5VVRMSDo6" opacity="1" fill="#000000" fill-opacity="1"></use><g><use xlink:href="#d5VVRMSDo6" opacity="1" fill-opacity="0" stroke="#000000" stroke-width="1" stroke-opacity="0"></use></g></g><g><use xlink:href="#a4PNXE3vr2" opacity="1" fill="#000000" fill-opacity="1"></use><g><use xlink:href="#a4PNXE3vr2" opacity="1" fill-opacity="0" stroke="#000000" stroke-width="1" stroke-opacity="0"></use></g></g><g><use xlink:href="#b3oCpsjScr" opacity="1" fill="#000000" fill-opacity="1"></use><g><use xlink:href="#b3oCpsjScr" opacity="1" fill-opacity="0" stroke="#000000" stroke-width="1" stroke-opacity="0"></use></g></g><g><use xlink:href="#c27feamlDJ" opacity="1" fill="#000000" fill-opacity="1"></use><g><use xlink:href="#c27feamlDJ" opacity="1" fill-opacity="0" stroke="#000000" stroke-width="1" stroke-opacity="0"></use></g></g><g><use xlink:href="#e26ZhWrTb3" opacity="1" fill="#000000" fill-opacity="1"></use><g><use xlink:href="#e26ZhWrTb3" opacity="1" fill-opacity="0" stroke="#000000" stroke-width="1" stroke-opacity="0"></use></g></g><g><use xlink:href="#bzJa8AhKL" opacity="1" fill="#000000" fill-opacity="1"></use><g><use xlink:href="#bzJa8AhKL" opacity="1" fill-opacity="0" stroke="#000000" stroke-width="1" stroke-opacity="0"></use></g></g><g><use xlink:href="#bRcS0qKe3" opacity="1" fill="#000000" fill-opacity="1"></use><g><use xlink:href="#bRcS0qKe3" opacity="1" fill-opacity="0" stroke="#000000" stroke-width="1" stroke-opacity="0"></use></g></g><g><use xlink:href="#a3TWTTJ3aw" opacity="1" fill="#000000" fill-opacity="1"></use><g><use xlink:href="#a3TWTTJ3aw" opacity="1" fill-opacity="0" stroke="#000000" stroke-width="1" stroke-opacity="0"></use></g></g><g><use xlink:href="#bNn3xquhS" opacity="1" fill="#000000" fill-opacity="1"></use><g><use xlink:href="#bNn3xquhS" opacity="1" fill-opacity="0" stroke="#000000" stroke-width="1" stroke-opacity="0"></use></g></g><g><use xlink:href="#afIBl1znS" opacity="1" fill="#000000" fill-opacity="1"></use><g><use xlink:href="#afIBl1znS" opacity="1" fill-opacity="0" stroke="#000000" stroke-width="1" stroke-opacity="0"></use></g></g><g><use xlink:href="#d1qMhneYlS" opacity="1" fill="#000000" fill-opacity="1"></use><g><use xlink:href="#d1qMhneYlS" opacity="1" fill-opacity="0" stroke="#000000" stroke-width="1" stroke-opacity="0"></use></g></g><g><use xlink:href="#a2vdXYg9JN" opacity="1" fill="#000000" fill-opacity="1"></use><g><use xlink:href="#a2vdXYg9JN" opacity="1" fill-opacity="0" stroke="#000000" stroke-width="1" stroke-opacity="0"></use></g></g><g><use xlink:href="#dUuINutYq" opacity="1" fill="#000000" fill-opacity="1"></use><g><use xlink:href="#dUuINutYq" opacity="1" fill-opacity="0" stroke="#000000" stroke-width="1" stroke-opacity="0"></use></g></g><g><use xlink:href="#a3bUJyb2e" opacity="1" fill="#000000" fill-opacity="1"></use><g><use xlink:href="#a3bUJyb2e" opacity="1" fill-opacity="0" stroke="#000000" stroke-width="1" stroke-opacity="0"></use></g></g><g><use xlink:href="#gjJPcE3T" opacity="1" fill="#000000" fill-opacity="1"></use><g><use xlink:href="#gjJPcE3T" opacity="1" fill-opacity="0" stroke="#000000" stroke-width="1" stroke-opacity="0"></use></g></g><g><use xlink:href="#aDpbaao1d" opacity="1" fill="#000000" fill-opacity="1"></use><g><use xlink:href="#aDpbaao1d" opacity="1" fill-opacity="0" stroke="#000000" stroke-width="1" stroke-opacity="0"></use></g></g><g><use xlink:href="#bdjIZ740z" opacity="1" fill="#000000" fill-opacity="1"></use><g><use xlink:href="#bdjIZ740z" opacity="1" fill-opacity="0" stroke="#000000" stroke-width="1" stroke-opacity="0"></use></g></g><g><use xlink:href="#frAnymQG4" opacity="1" fill="#000000" fill-opacity="1"></use><g><use xlink:href="#frAnymQG4" opacity="1" fill-opacity="0" stroke="#000000" stroke-width="1" stroke-opacity="0"></use></g></g><g><use xlink:href="#a9JYaxudg" opacity="1" fill="#000000" fill-opacity="1"></use><g><use xlink:href="#a9JYaxudg" opacity="1" fill-opacity="0" stroke="#000000" stroke-width="1" stroke-opacity="0"></use></g></g><g><use xlink:href="#d5zk7nEPlD" opacity="1" fill="#000000" fill-opacity="1"></use><g><use xlink:href="#d5zk7nEPlD" opacity="1" fill-opacity="0" stroke="#000000" stroke-width="1" stroke-opacity="0"></use></g></g><g><use xlink:href="#ipZN8biGc" opacity="1" fill="#000000" fill-opacity="1"></use><g><use xlink:href="#ipZN8biGc" opacity="1" fill-opacity="0" stroke="#000000" stroke-width="1" stroke-opacity="0"></use></g></g><g><use xlink:href="#cikTGdElw" opacity="1" fill="#000000" fill-opacity="1"></use><g><use xlink:href="#cikTGdElw" opacity="1" fill-opacity="0" stroke="#000000" stroke-width="1" stroke-opacity="0"></use></g></g><g><use xlink:href="#a4Jr7caT5s" opacity="1" fill="#000000" fill-opacity="1"></use><g><use xlink:href="#a4Jr7caT5s" opacity="1" fill-opacity="0" stroke="#000000" stroke-width="1" stroke-opacity="0"></use></g></g><g><use xlink:href="#a43MQkHo0" opacity="1" fill="#000000" fill-opacity="1"></use><g><use xlink:href="#a43MQkHo0" opacity="1" fill-opacity="0" stroke="#000000" stroke-width="1" stroke-opacity="0"></use></g></g><g><use xlink:href="#a20OwOeuWn" opacity="1" fill="#000000" fill-opacity="1"></use><g><use xlink:href="#a20OwOeuWn" opacity="1" fill-opacity="0" stroke="#000000" stroke-width="1" stroke-opacity="0"></use></g></g><g><use xlink:href="#b5oBZuzOTm" opacity="1" fill="#000000" fill-opacity="1"></use><g><use xlink:href="#b5oBZuzOTm" opacity="1" fill-opacity="0" stroke="#000000" stroke-width="1" stroke-opacity="0"></use></g></g><g><use xlink:href="#b1rewIWg0q" opacity="1" fill="#000000" fill-opacity="1"></use><g><use xlink:href="#b1rewIWg0q" opacity="1" fill-opacity="0" stroke="#000000" stroke-width="1" stroke-opacity="0"></use></g></g><g><use xlink:href="#a8XqZi84r" opacity="1" fill="#000000" fill-opacity="1"></use><g><use xlink:href="#a8XqZi84r" opacity="1" fill-opacity="0" stroke="#000000" stroke-width="1" stroke-opacity="0"></use></g></g><g><use xlink:href="#bhpuUMjmq" opacity="1" fill="#000000" fill-opacity="1"></use><g><use xlink:href="#bhpuUMjmq" opacity="1" fill-opacity="0" stroke="#000000" stroke-width="1" stroke-opacity="0"></use></g></g><g><use xlink:href="#clK6tvypq" opacity="1" fill="#000000" fill-opacity="1"></use><g><use xlink:href="#clK6tvypq" opacity="1" fill-opacity="0" stroke="#000000" stroke-width="1" stroke-opacity="0"></use></g></g><g><use xlink:href="#g6ub7E9IKS" opacity="1" fill="#000000" fill-opacity="1"></use><g><use xlink:href="#g6ub7E9IKS" opacity="1" fill-opacity="0" stroke="#000000" stroke-width="1" stroke-opacity="0"></use></g></g><g><use xlink:href="#a3r0A9OP1W" opacity="1" fill="#000000" fill-opacity="1"></use><g><use xlink:href="#a3r0A9OP1W" opacity="1" fill-opacity="0" stroke="#000000" stroke-width="1" stroke-opacity="0"></use></g></g><g><use xlink:href="#aUVMNbYZ0" opacity="1" fill="#000000" fill-opacity="1"></use><g><use xlink:href="#aUVMNbYZ0" opacity="1" fill-opacity="0" stroke="#000000" stroke-width="1" stroke-opacity="0"></use></g></g><g><use xlink:href="#b1Ukn8M5D4" opacity="1" fill="#000000" fill-opacity="1"></use><g><use xlink:href="#b1Ukn8M5D4" opacity="1" fill-opacity="0" stroke="#000000" stroke-width="1" stroke-opacity="0"></use></g></g><g><use xlink:href="#bzuj1ShzJ" opacity="1" fill="#000000" fill-opacity="1"></use><g><use xlink:href="#bzuj1ShzJ" opacity="1" fill-opacity="0" stroke="#000000" stroke-width="1" stroke-opacity="0"></use></g></g><g><use xlink:href="#a4sxYq1oVD" opacity="1" fill="#000000" fill-opacity="1"></use><g><use xlink:href="#a4sxYq1oVD" opacity="1" fill-opacity="0" stroke="#000000" stroke-width="1" stroke-opacity="0"></use></g></g><g><use xlink:href="#a10XELUGmC" opacity="1" fill="#000000" fill-opacity="1"></use><g><use xlink:href="#a10XELUGmC" opacity="1" fill-opacity="0" stroke="#000000" stroke-width="1" stroke-opacity="0"></use></g></g><g><use xlink:href="#e2CpsytjVw" opacity="1" fill="#000000" fill-opacity="1"></use><g><use xlink:href="#e2CpsytjVw" opacity="1" fill-opacity="0" stroke="#000000" stroke-width="1" stroke-opacity="0"></use></g></g><g><use xlink:href="#ga8xCgnZDp" opacity="1" fill="#000000" fill-opacity="1"></use><g><use xlink:href="#ga8xCgnZDp" opacity="1" fill-opacity="0" stroke="#000000" stroke-width="1" stroke-opacity="0"></use></g></g><g><use xlink:href="#c28QZhRUqa" opacity="1" fill="#000000" fill-opacity="1"></use><g><use xlink:href="#c28QZhRUqa" opacity="1" fill-opacity="0" stroke="#000000" stroke-width="1" stroke-opacity="0"></use></g></g><g><use xlink:href="#agTcqy4JE" opacity="1" fill="#000000" fill-opacity="1"></use><g><use xlink:href="#agTcqy4JE" opacity="1" fill-opacity="0" stroke="#000000" stroke-width="1" stroke-opacity="0"></use></g></g><g><use xlink:href="#a1aYbPQguu" opacity="1" fill="#000000" fill-opacity="1"></use><g><use xlink:href="#a1aYbPQguu" opacity="1" fill-opacity="0" stroke="#000000" stroke-width="1" stroke-opacity="0"></use></g></g><g><use xlink:href="#a22NXUlVvQ" opacity="1" fill="#000000" fill-opacity="1"></use><g><use xlink:href="#a22NXUlVvQ" opacity="1" fill-opacity="0" stroke="#000000" stroke-width="1" stroke-opacity="0"></use></g></g><g><use xlink:href="#b31pZR9XOV" opacity="1" fill="#000000" fill-opacity="1"></use><g><use xlink:href="#b31pZR9XOV" opacity="1" fill-opacity="0" stroke="#000000" stroke-width="1" stroke-opacity="0"></use></g></g><g><use xlink:href="#b6FyyG1Ql" opacity="1" fill="#000000" fill-opacity="1"></use><g><use xlink:href="#b6FyyG1Ql" opacity="1" fill-opacity="0" stroke="#000000" stroke-width="1" stroke-opacity="0"></use></g></g><g><use xlink:href="#d1Rd6VBFGH" opacity="1" fill="#000000" fill-opacity="1"></use><g><use xlink:href="#d1Rd6VBFGH" opacity="1" fill-opacity="0" stroke="#000000" stroke-width="1" stroke-opacity="0"></use></g></g></g></g></svg>